<svg xmlns="http://www.w3.org/2000/svg" viewBox="0 0 199.58 254.82">
  <title>bum edit - the real deal</title>
  <g id="hair_and_bod" data-name="hair and bod" className="bodryRight">
    <path d="M354.08,312.63c2.1,0,4.49-6,5.07-7.61a37.35,37.35,0,0,0,1.82-9.19c.75-7.84-.29-17.22,5.21-23.64,6.16-7.17,18.82-6.29,27.39-7.42,5.66-.76,11-2.63,11.79-8.92.25-1.91-2.75-1.89-3,0-.31,2.34-3.41,4.75-5.56,5.34a31.48,31.48,0,0,1-4,.67c-2.85.37-5.71.68-8.57,1-4.13.49-8.43.8-12.4,2.14-6.78,2.29-10.76,7.65-12.34,14.46-1.84,7.89-.41,16.31-3,24-1,2.9-2.86,4.65-4.42,7.13a4.67,4.67,0,0,0-.94,2.15,2.71,2.71,0,0,0,3,2.83c1.92,0,1.93-3,0-3Z" transform="translate(-223.79 -103.18)"/>
    <path d="M407.42,258.59c-4.09,3.11-2.87,5.42-3.65,10.1-.55,3.28,0,4.8,1.55,7.72a32.17,32.17,0,0,0,2.19,4.3c1,1.4,2.82,2,3.57,3.76,1.76,4.07-3.69,7.87-7,4.81-.93-.85-1.18-2-2.29-2.84a1.51,1.51,0,0,0-2.05.53c-1,1.69-.33,2.9-.83,4.56-1.71,5.68-9.93-1.1-6.35-5,1.31-1.41-.81-3.54-2.12-2.12-3.7,4-1.54,9.48,3.15,12a6.4,6.4,0,0,0,6.36-.33c3.51-2.31.55-4.42,2.38-7.58l-2.06.54c1.35,1,1.41,2.94,3,3.78,1.33.7,3.8.57,5.18.35,2.94-.47,6.42-2.8,6.55-6.06.17-4.25-4.1-6.69-5.89-9.91-.83-1.48-2.26-3.54-2.56-5.12-.44-2.34.7-9.62,2.37-10.89,1.52-1.15,0-3.76-1.51-2.59Z" transform="translate(-223.79 -103.18)"/>
    <path d="M372,314.51a35.53,35.53,0,0,0,12.27-6.34c4.32-3.49,6.62-8.38,10.58-12.11,1.4-1.33-.72-3.45-2.13-2.12-3.26,3.07-5.22,7.19-8.49,10.29a31.9,31.9,0,0,1-13,7.39c-1.85.55-1.06,3.45.8,2.89Z" transform="translate(-223.79 -103.18)"/>
    <path d="M371.26,292.39l1-1.59-1.7.69c5.29,1.94,11.13-1.11,15.09-4.6a24.18,24.18,0,0,0,5.2-6.49c1.63-3,1.86-6.57,3.59-9.46a1.5,1.5,0,0,0-2.59-1.51c-2.22,3.69-2.41,8.09-5,11.71-3.17,4.43-9.77,9.56-15.49,7.46a1.51,1.51,0,0,0-1.69.69l-1,1.58c-1,1.65,1.58,3.16,2.59,1.52Z" transform="translate(-223.79 -103.18)"/>
    <path d="M363.14,316.54a37.54,37.54,0,0,0,.9-7.91c0-3.54-1.4-7.39.31-10.72.95-1.86,2.38-3.2,3.11-5.23.86-2.39,1-5,1.64-7.4,1.64-6.08,6.45-9.55,12.42-10.77,4.44-.91,8.52-1.23,12-4.4,1.42-1.31-.7-3.43-2.12-2.12-4.26,3.9-10.76,2.85-15.78,5.25a17.22,17.22,0,0,0-8.45,8.38c-1,2.34-1.28,4.87-1.83,7.35-.76,3.46-2.89,5.55-4.25,8.62a11.14,11.14,0,0,0-.53,5.61c.33,4.42.62,8.11-.3,12.55-.38,1.88,2.51,2.69,2.9.79Z" transform="translate(-223.79 -103.18)"/>
    <path d="M358.2,294.29c-5.8,0-10.33,3-14.65,6.66-4.48,3.73-9.71,8.29-10.63,14.41-.61,4.05.86,8.56,4.68,10.51,6.26,3.2,13.51.42,18.77,6.38,1.29,1.45,3.4-.68,2.13-2.12a15.83,15.83,0,0,0-8.16-4.83c-4.39-1.17-12-.22-14-5.18-2.38-5.94,2.85-11.33,6.9-15,4.26-3.84,8.91-7.82,14.92-7.86a1.5,1.5,0,0,0,0-3Z" transform="translate(-223.79 -103.18)"/>
    <path d="M365.12,334.35v.86l-.9.69.22-.08-1.45-.39a81.45,81.45,0,0,0,6.42,6.72c1.41,1.32,3.53-.8,2.12-2.12a83.14,83.14,0,0,1-6.42-6.72,1.48,1.48,0,0,0-1.46-.39,1.93,1.93,0,0,0-1.11,2.94c1.12,1.55,3.72.06,2.59-1.51Z" transform="translate(-223.79 -103.18)"/>
    <path d="M377,325a84.32,84.32,0,0,0,11.25,8.27c1.65,1,3.16-1.58,1.52-2.6a79,79,0,0,1-10.65-7.79c-1.44-1.27-3.57.84-2.12,2.12Z" transform="translate(-223.79 -103.18)"/>
    <path d="M371.38,338.46c-.85-1.1-.35-3-.28-4.28a8.18,8.18,0,0,0-.67-4c-.78-1.76-3.37-.23-2.59,1.52.67,1.48.1,3.31.1,4.87a6,6,0,0,0,1.32,4c1.18,1.52,3.28-.61,2.12-2.12Z" transform="translate(-223.79 -103.18)"/>
    <path d="M377.45,340.6a46,46,0,0,1-.88-16.62c.24-1.91-2.77-1.89-3,0a48.19,48.19,0,0,0,1,17.42c.45,1.88,3.35,1.08,2.9-.8Z" transform="translate(-223.79 -103.18)"/>
    <path d="M382.85,338.47a32.68,32.68,0,0,1-.93-9.8c.1-1.93-2.9-1.93-3,0a35.71,35.71,0,0,0,1,10.6c.47,1.87,3.36,1.08,2.9-.8Z" transform="translate(-223.79 -103.18)"/>
    <path d="M401.28,248.78c-1.42-.19.49-10.93.63-11.32,2.25-6,9.46-10,14.32-3.92,5.94,7.38,5.72,21.3-6.26,21.35a1.5,1.5,0,0,0,0,3c6.6,0,12.57-4.55,13.32-11.34.66-6-2.78-15.78-8.74-18.33-14.83-6.34-21.78,22.44-13.27,23.56,1.91.25,1.89-2.75,0-3Z" transform="translate(-223.79 -103.18)"/>
    <path d="M355.31,316l.19-.22-1.85-1.05-.52.59a1.51,1.51,0,0,0-1.1,1.44,54.46,54.46,0,0,0,.66,6.39,3,3,0,0,0,3.2,2.48,5.71,5.71,0,0,0,4-2.62,11.19,11.19,0,0,0,1.41-2.47c.4-1,.43-2.33.94-3.2l-.89.69-.12,0-.89-.69.15.28c.91,1.7,3.5.19,2.59-1.51a2,2,0,0,0-2.53-.94c-1.46.59-1.36,2.27-1.76,3.56-.25.77-2.1,4.6-3.08,3.74-.39-.34-.28-2.08-.33-2.59l-.31-3.09-1.1,1.45a3.53,3.53,0,0,0,2.61-4.28,1.48,1.48,0,0,0-1.84-1,3.47,3.47,0,0,0-1.51,1c-1.29,1.43.83,3.56,2.12,2.12Z" transform="translate(-223.79 -103.18)"/>
    <path d="M370.78,290.07l-1.52-.91a1.51,1.51,0,0,0-2.2,1.69,3.87,3.87,0,0,0,1.08,2.1,1.49,1.49,0,0,0,1.46.39c4.39-1.1,3.95,7.85,3.74,10.46-.45,5.53-3.45,8.45-8,11.37-1.62,1-.12,3.63,1.52,2.59,6.74-4.31,9.53-8.49,9.6-16.5,0-3.06-.31-6.29-2.1-8.87-.54-.78-1.47-2.12-2.44-2.4a7.69,7.69,0,0,0-1.95.07l-2.2,1.69,1.52.91a1.5,1.5,0,0,0,1.51-2.59Z" transform="translate(-223.79 -103.18)"/>
    <path d="M374.9,319.05c-1.3-.21-2.61-.37-3.91-.61a10.17,10.17,0,0,1-2-.44c-.53-.21-2.11-1.9-.67-1.89a1.5,1.5,0,0,0,0-3c-4.14,0-4.41,5.17-1.48,7.14,2,1.36,5,1.32,7.3,1.7,1.89.3,2.7-2.59.8-2.9Z" transform="translate(-223.79 -103.18)"/>
    <path d="M375,319.08c-6.89,2.74-12.24,6.74-17.62,11.84a1.51,1.51,0,0,0,0,2.12c2.46,2.33,4.07,3.75,7.05,1.62,4.78-3.42,8.29-9.15,14.34-10.36a1.51,1.51,0,0,0,.89-2.2c-.94-1.78-3.46-3.71-5.14-1.77-1.26,1.45.85,3.58,2.12,2.12l.43,1.16.9-2.2a17.81,17.81,0,0,0-8.56,4.83c-1.54,1.41-3,2.92-4.58,4.27a9.71,9.71,0,0,1-2,1.63c-1.71.73-2,0-3.32-1.22V333c5-4.7,9.92-8.52,16.3-11.07,1.77-.7,1-3.61-.8-2.89Z" transform="translate(-223.79 -103.18)"/>
    <path d="M360,331l-.05.06,2.06-.54-.08,0,.54,2.05c.5-.9,2.09-1.72,2.9-2.39a39.08,39.08,0,0,1,3.33-2.5c2.14-1.44,3.89-3.58,6.5-4.14,1.88-.4,1.09-3.29-.8-2.89-3.15.67-5.36,3.14-7.92,4.89-1.25.85-2.41,1.83-3.57,2.8-.94.78-2.44,1.64-3,2.72a1.51,1.51,0,0,0,.54,2.05l.07,0a1.55,1.55,0,0,0,2-.54l.05-.05c1.17-1.54-1.43-3-2.59-1.52Z" transform="translate(-223.79 -103.18)"/>
    <path d="M373.6,332.39c1.26,1.41,3,1.54,4.76,1.56,2.75,0,5.49,0,8.24,0a1.5,1.5,0,0,0,0-3L381,331c-1.4,0-4.2.46-5.24-.7-1.29-1.44-3.41.69-2.12,2.12Z" transform="translate(-223.79 -103.18)"/>
    <path d="M366.63,339.62a108.41,108.41,0,0,1,12.35,1c1.89.26,2.71-2.63.8-2.9a118.17,118.17,0,0,0-13.15-1.11c-1.93-.05-1.93,2.95,0,3Z" transform="translate(-223.79 -103.18)"/>
    <path d="M363.84,329.08l1,.64-1.5,1.5a30.93,30.93,0,0,1,12.56,2.42c1.75.75,3.29-1.83,1.51-2.59a34.37,34.37,0,0,0-14.07-2.83,1.52,1.52,0,0,0-1.5,1.5c.23,1.86,1.76,2.88,3.51,1.95s.19-3.5-1.51-2.59Z" transform="translate(-223.79 -103.18)"/>
    <path d="M397,243" transform="translate(-223.79 -103.18)" fill="none" stroke="#ff4d4d" stroke-miterlimit="10" stroke-width="0.25"/>
    <path d="M403.18,235.24" transform="translate(-223.79 -103.18)" fill="none" stroke="#ff4d4d" stroke-miterlimit="10" stroke-width="0.25"/>
    <path d="M396.52,204.3" transform="translate(-223.79 -103.18)" fill="none" stroke="#ff4d4d" stroke-miterlimit="10" stroke-width="0.25"/>
    <g>
      <path d="M386.11,235.89a43.79,43.79,0,0,1-3.87-2.79c.9.64,1.83,1.27,2.79,1.85a53.45,53.45,0,0,1-6.83-5.62,42.84,42.84,0,0,1-6.74-8.19,27.11,27.11,0,0,1-4-10.06,17.81,17.81,0,0,1,0-5.83,16.7,16.7,0,0,1,.75-2.92l.42-1.17c.11-.32.25-.63.33-1A23.65,23.65,0,0,0,370,192a21.22,21.22,0,0,0-1.16-6.15,16.6,16.6,0,0,0-1.27-2.73,13.06,13.06,0,0,0-.79-1.24,9.15,9.15,0,0,0-.86-1.07,27.62,27.62,0,0,0-5.09-4,41.74,41.74,0,0,1-6.38-4.87A27.93,27.93,0,0,1,346,157.49a22.56,22.56,0,0,1-.06-8.78,20.33,20.33,0,0,1,3.52-8.29c1.46-2,3-3.19,2.7-3.16a10.64,10.64,0,0,0-3.36,3.29A21.78,21.78,0,0,0,345,153.62a25.18,25.18,0,0,0,3.91,12.63,33.21,33.21,0,0,0,8.68,9.21c3.32,2.37,6.28,4,7.9,6a8.2,8.2,0,0,1,.58.74l.56.84.5.91c.16.3.29.63.44.94a18.1,18.1,0,0,1,1.18,4.12,21.82,21.82,0,0,1-.37,8.74l-.28,1-.35,1c-.1.34-.26.66-.39,1l-.23.57-.33.86a18.87,18.87,0,0,0-1.12,7.07,27.83,27.83,0,0,0,3.63,12.29,39.11,39.11,0,0,0,5.22,7.51,40.78,40.78,0,0,0,11.78,9.15c3.89,2,7.54,2.62,8.88,2.49.51-.08.52-.24.1-.46s-1.61-.61-3-1.19a44.44,44.44,0,0,1-10.51-6.44A44.65,44.65,0,0,0,386.11,235.89Z" transform="translate(-223.79 -103.18)" fill="#ff2020"/>
      <path d="M387.65,233.31a42,42,0,0,1-3.59-2.59c.84.59,1.71,1.17,2.6,1.71a50.1,50.1,0,0,1-6.37-5.25,40.55,40.55,0,0,1-6.27-7.6,24.3,24.3,0,0,1-3.59-8.93,15.07,15.07,0,0,1,0-4.88,27.93,27.93,0,0,1,1.4-4.61,26.93,26.93,0,0,0,1.2-9.28,24.06,24.06,0,0,0-1.34-7,18.46,18.46,0,0,0-3.54-6.07c-3.19-3.43-8-5.36-11.61-9A24.92,24.92,0,0,1,349,156.89a19.63,19.63,0,0,1-.06-7.6,17.35,17.35,0,0,1,3-7.06c1.22-1.63,2.43-2.64,2.2-2.64a8.06,8.06,0,0,0-2.81,2.7A18.77,18.77,0,0,0,348,153.54a22.09,22.09,0,0,0,3.46,11.12,29.93,29.93,0,0,0,7.88,8.36c3.07,2.23,6.26,3.95,8.39,6.43a18.49,18.49,0,0,1,4,9,24.76,24.76,0,0,1-.39,9.93l-.32,1.2-.39,1.16c-.29.81-.58,1.41-1,2.45a16,16,0,0,0-.95,5.95,24.79,24.79,0,0,0,3.22,10.92,36.83,36.83,0,0,0,4.84,7,38.05,38.05,0,0,0,11,8.56c3.61,1.83,6.81,2.31,7.93,2.15.51-.08.52-.24.1-.46s-1.35-.56-2.53-1.08a42.19,42.19,0,0,1-9.59-5.95A40.48,40.48,0,0,0,387.65,233.31Z" transform="translate(-223.79 -103.18)" fill="#ff2020"/>
      <path d="M389.19,230.74a37.29,37.29,0,0,1-3.31-2.41c.78.55,1.59,1.09,2.41,1.58a48.38,48.38,0,0,1-5.91-4.88,37.64,37.64,0,0,1-5.8-7,21.55,21.55,0,0,1-3.18-7.79,11.86,11.86,0,0,1,0-3.94,10.24,10.24,0,0,1,.47-1.87L374,204l.22-.61c.14-.41.32-.81.43-1.23A29.65,29.65,0,0,0,376,191.77a24,24,0,0,0-5.67-15,32.66,32.66,0,0,0-6.2-4.89,36.07,36.07,0,0,1-5.56-4.22,22,22,0,0,1-6.65-11.33A15.92,15.92,0,0,1,354.29,144c1-1.29,1.88-2.09,1.68-2.12a5.8,5.8,0,0,0-2.25,2.11,15.87,15.87,0,0,0-2.71,9.44,19,19,0,0,0,3,9.6,27,27,0,0,0,7.09,7.52c2.81,2.08,6.22,3.85,8.87,6.86a21.43,21.43,0,0,1,4.68,10.46,27.78,27.78,0,0,1-.41,11.13l-.36,1.34-.44,1.32c-.3.85-.71,1.76-1,2.48a12.68,12.68,0,0,0-.79,4.82,21.48,21.48,0,0,0,2.82,9.55A33.07,33.07,0,0,0,379,225a34.93,34.93,0,0,0,10.26,8c3.32,1.66,6.08,2,7,1.83.51-.08.52-.25.1-.47s-1.09-.51-2.11-1a40.68,40.68,0,0,1-8.66-5.46A41.53,41.53,0,0,0,389.19,230.74Z" transform="translate(-223.79 -103.18)" fill="#ff2020"/>
      <path d="M390.73,228.16a33.54,33.54,0,0,1-3-2.22c.72.51,1.47,1,2.22,1.45a45,45,0,0,1-5.45-4.52,34.69,34.69,0,0,1-5.33-6.41,18.75,18.75,0,0,1-2.77-6.66,8.84,8.84,0,0,1-.06-3,7.71,7.71,0,0,1,.33-1.36l.12-.36.25-.67c.16-.46.35-.91.48-1.37a32.84,32.84,0,0,0,1.51-11.4,26.92,26.92,0,0,0-6.47-17,35.66,35.66,0,0,0-6.75-5.35,33.72,33.72,0,0,1-5.15-3.9,19,19,0,0,1-5.77-9.74,13,13,0,0,1,1.82-9.85c.72-1,1.34-1.54,1.18-1.6a3.71,3.71,0,0,0-1.7,1.52A12.88,12.88,0,0,0,354,153.4a16,16,0,0,0,2.55,8.08,24.2,24.2,0,0,0,6.3,6.68c1.3,1,2.83,1.91,4.45,3a27,27,0,0,1,4.91,4.26,24.28,24.28,0,0,1,5.39,11.9,30.83,30.83,0,0,1-.43,12.34l-.4,1.48-.48,1.47c-.16.49-.38,1-.56,1.44l-.43,1.08a9.71,9.71,0,0,0-.63,3.69A18.71,18.71,0,0,0,377.1,217a30,30,0,0,0,4.07,6,32,32,0,0,0,9.5,7.36c3,1.5,5.34,1.71,6,1.5.51-.08.52-.24.1-.47a11.86,11.86,0,0,0-1.68-.86,39.74,39.74,0,0,1-7.74-5A37.29,37.29,0,0,0,390.73,228.16Z" transform="translate(-223.79 -103.18)" fill="#ff2020"/>
    </g>
    <g>
      <path d="M409.74,214.06a24.84,24.84,0,0,0,1.76-4.23,26.42,26.42,0,0,1-1,3.09,24.85,24.85,0,0,0,2.18-8.38,31,31,0,0,0-.88-9.81,32.85,32.85,0,0,0-1.5-4.59,21.55,21.55,0,0,0-1-2l-.11-.18,0-.05h0l.08,0,.17-.11c.21-.13.44-.3.63-.41a12.75,12.75,0,0,0,1.17-.8l.07,0c.47-.36-3.88,2.88-2,1.48l.18-.11.36-.24.37-.23.09-.06,0,0,0,0c-.08,0,.12,0,.19-.07l.27-.11s.32-.2,0,.18l-.66.77-.33.38-.07.09h0l0,0,.17.17.18.16.09.08h0c1-1.07-2.14,2.4,2.16-2.39l-.07,0-.13,0-1,.4-2.08.81-1-1.62a8.85,8.85,0,0,0-.75-1.13c-.55-.73-1.06-1.48-1.65-2.2l-1.8-2.14-2-2.09c-2.68-2.77-5.64-5.46-8.7-8.37-2.17-2.06-4.34-4.24-6.42-6.57-1-1.21-2.06-2.38-3-3.71a41.08,41.08,0,0,1-2.67-4.09c-.42-.7-.74-1.49-1.11-2.24a15.29,15.29,0,0,1-1-2.32l-.8-2.41c-.19-.82-.34-1.66-.5-2.5a27.59,27.59,0,0,1,.06-10.05c1.22-6.5,4.06-12.15,7.08-17.36a52,52,0,0,1,5.39-7.73,25.48,25.48,0,0,1,8-6.41c2.56-1.23,4.76-1.64,4.47-1.75a7,7,0,0,0-1.69.25c-.48.13-1,.3-1.64.51s-1.23.49-1.86.83a29.64,29.64,0,0,0-10.2,9.42c-1.26,1.77-2.39,3.59-3.43,5.39s-2,3.65-3,5.58a43.39,43.39,0,0,0-4,12.61,29.56,29.56,0,0,0-.15,7c.12,1.18.39,2.32.6,3.48.05.28.1.57.17.86l.27.83.54,1.66A39,39,0,0,0,385.1,163a107.52,107.52,0,0,0,8.36,8.91c2.78,2.74,5.47,5.37,7.87,8.05.57.67,1.2,1.33,1.73,2l1.6,2,1.41,2.08a8.11,8.11,0,0,1,.63,1.05l.33.59.66,1.15,2.55-1.28,1.28-.64.64-.32.16-.08h0l-3.21,3.58h0l0,0-.11-.07a2.27,2.27,0,0,1-.4-.29c-1.17.85,2.61-2.87,1.59-2.12l-.69.36c-.11.05,0,0,.07,0l-.94.58-.48.3-.24.15,3.44-2.57,0,0-.06.05-.49.36c-.34.25-.67.43-1.05.69l-1.15.73-.58.35-.27.15h0v0l.3.64.34.84a29.51,29.51,0,0,1,1.14,3.67,32.55,32.55,0,0,1,.85,7.94,28,28,0,0,1-2.87,12.34c-1.61,3.29-3.44,5.55-3.89,6.51-.28.53-.15.62.33.35a11.35,11.35,0,0,0,2.11-1.75,23.26,23.26,0,0,0,5.76-10.07A26.14,26.14,0,0,1,409.74,214.06Z" transform="translate(-223.79 -103.18)" fill="#ff2020"/>
      <path d="M412.44,215.38a29.49,29.49,0,0,0,1.95-4.72,28.23,28.23,0,0,1-1.13,3.44,27.46,27.46,0,0,0,2.42-9.31,34,34,0,0,0-.95-10.75,36.52,36.52,0,0,0-1.63-5,23,23,0,0,0-1.11-2.35,3.66,3.66,0,0,0-.3-.5s.13-.14.1-.15,0,0,0,.05.13,0,.09.14-.13.27-.09.31l.09.15.09.15,0,.08h0c.14-.15-.3.34.31-.33l0,0,0,0-.29-.19-.59-.36c-4.07-7-10.11-12-16.13-17.84-4.3-4.08-8.54-8.4-11.54-13.67a25.92,25.92,0,0,1-3-17.53c1.1-5.93,3.77-11.31,6.7-16.37a49.34,49.34,0,0,1,5.07-7.27,22.54,22.54,0,0,1,7-5.68c2.17-1,4-1.4,3.75-1.52a5.88,5.88,0,0,0-1.43.19c-.4.11-.87.25-1.38.42s-1,.42-1.58.71a26.67,26.67,0,0,0-9.12,8.49,74.74,74.74,0,0,0-6.12,10.51,40.37,40.37,0,0,0-3.75,11.72,26.9,26.9,0,0,0-.14,6.28c.11,1.05.36,2.07.54,3.11.05.25.09.51.15.77l.24.74.49,1.5a36.28,36.28,0,0,0,6.22,10.56,106.61,106.61,0,0,0,8.12,8.66c2.77,2.72,5.51,5.39,8,8.17.6.7,1.24,1.39,1.82,2.11l1.69,2.16,1.52,2.24a8.86,8.86,0,0,1,.69,1.14l.82,1.45,1.25-.25.62-.13.32-.07h.08L411,188.12h0l0,0-.06-.06a2.16,2.16,0,0,1-.25-.27c-.53.32,1.06-1.32.61-1l-.32.07c-.05,0,0,0,0,0l-.39.27-.2.14-.1.06,1.05-.78,0,0-.06.05-.49.36-.5.33h0v0l0,.07a17.57,17.57,0,0,1,.81,1.82,31.91,31.91,0,0,1,1.27,4,35.66,35.66,0,0,1,1,8.73,31.86,31.86,0,0,1-.91,7.48,31.16,31.16,0,0,1-2.33,6.32c-1.82,3.67-3.85,6.12-4.36,7.15-.28.53-.15.62.33.34a12.25,12.25,0,0,0,2.28-1.93,26.24,26.24,0,0,0,6.33-11.19A29.65,29.65,0,0,1,412.44,215.38Z" transform="translate(-223.79 -103.18)" fill="#ff2020"/>
      <path d="M415.13,216.7a32.41,32.41,0,0,0,2.14-5.21,31.11,31.11,0,0,1-1.25,3.79A30.63,30.63,0,0,0,418.67,205a36.79,36.79,0,0,0-1-11.68,39,39,0,0,0-1.76-5.42,28.63,28.63,0,0,0-1.25-2.65l-.21-.37a5.66,5.66,0,0,0-.33-.5,2.35,2.35,0,0,0-.17-.2s0,0,0,0l0,.08.07.17,0,.09s0,.07,0,0l-.1-.16-.19-.31-.64-1a10.82,10.82,0,0,0-.88-1.32c-.63-.85-1.22-1.73-1.88-2.53l-2-2.4-2.12-2.26c-2.87-3-5.9-5.72-8.89-8.58-2.15-2-4.18-4.07-6.09-6.2-.91-1.09-1.86-2.15-2.65-3.3a35,35,0,0,1-2.27-3.47c-.36-.59-.59-1.22-.9-1.83a11.73,11.73,0,0,1-.78-1.87l-.63-1.9c-.15-.65-.25-1.31-.39-2a21.37,21.37,0,0,1,.06-8c1-5.35,3.48-10.47,6.34-15.37a45.27,45.27,0,0,1,4.74-6.83,19.65,19.65,0,0,1,6-5c1.78-.85,3.23-1.15,3-1.27a7.51,7.51,0,0,0-3.59,1,23.75,23.75,0,0,0-8,7.56,71.77,71.77,0,0,0-5.85,10,37.39,37.39,0,0,0-3.48,10.84,23.11,23.11,0,0,0-.13,5.57c.09.92.32,1.82.47,2.73,0,.23.08.46.13.69l.22.66.43,1.32a33.17,33.17,0,0,0,5.71,9.68,103.93,103.93,0,0,0,7.89,8.4c2.75,2.71,5.53,5.42,8.12,8.3.63.74,1.29,1.44,1.9,2.2l1.79,2.28,1.64,2.4a12.75,12.75,0,0,1,.75,1.24l.64,1.15.4.72c-.08-.14-.16-.29-.23-.44s0-.07,0-.11.11.11.13.14.13.21.18.3a21.71,21.71,0,0,1,1,2.16,37.35,37.35,0,0,1,1.39,4.4,38.65,38.65,0,0,1,1.07,9.5,34,34,0,0,1-3.6,15.27,83.74,83.74,0,0,1-4.83,7.79c-.29.53-.16.62.32.34a13.82,13.82,0,0,0,2.44-2.12,27.49,27.49,0,0,0,3.64-4.75,29.33,29.33,0,0,0,3.27-7.57A32.58,32.58,0,0,1,415.13,216.7Z" transform="translate(-223.79 -103.18)" fill="#ff2020"/>
      <path d="M417.83,218a35.08,35.08,0,0,0,2.32-5.68,35,35,0,0,1-1.37,4.13,33.7,33.7,0,0,0,2.88-11.18,39.87,39.87,0,0,0-1.09-12.62,40.61,40.61,0,0,0-1.9-5.84c-.4-1-.81-1.88-1.38-3l-.26-.45-.18-.29-.12-.19-.22-.31-.31-.36h0v0s0,0,0,0l0,0-.44-.71-.45-.74-.49-.68c-.67-.9-1.31-1.84-2-2.7l-2.12-2.51-2.19-2.36c-3-3.06-6-5.85-9-8.67-2.13-2-4.09-4-5.91-6a38.56,38.56,0,0,1-2.48-3.09,30,30,0,0,1-2.07-3.16,16.35,16.35,0,0,1-.8-1.63,8.85,8.85,0,0,1-.69-1.63l-.56-1.66c-.12-.56-.2-1.13-.32-1.7a18.37,18.37,0,0,1,.05-6.93c.88-4.77,3.2-9.63,6-14.38a42.4,42.4,0,0,1,4.41-6.38,17.07,17.07,0,0,1,5.07-4.21c1.38-.66,2.45-.91,2.3-1a5,5,0,0,0-2.79.76c-5.14,2.61-9.29,9.66-12.56,16.22a34.65,34.65,0,0,0-3.22,10,20.28,20.28,0,0,0-.12,4.85c.08.8.29,1.58.41,2.37,0,.2.06.4.11.6l.19.57.38,1.16a30.17,30.17,0,0,0,5.2,8.78,99.7,99.7,0,0,0,7.65,8.15c2.75,2.7,5.57,5.45,8.25,8.43.66.77,1.34,1.49,2,2.29l1.89,2.4,1.75,2.56a13.44,13.44,0,0,1,.81,1.33l.36.64.11.22.09.18,0,.09s0,.08,0,0l-.09-.17,0,0h0l.12.13.18.23c.1.16.15.23.19.31l.13.21a22.9,22.9,0,0,1,1.15,2.5,39.32,39.32,0,0,1,1.52,4.77,37.37,37.37,0,0,1,.85,4.65,45.17,45.17,0,0,1,.33,5.63,38,38,0,0,1-1.1,9,37.25,37.25,0,0,1-2.87,7.68,83,83,0,0,1-5.3,8.43c-.28.52-.15.62.33.34A15.86,15.86,0,0,0,413,225a30.15,30.15,0,0,0,3.93-5.18,32.27,32.27,0,0,0,3.55-8.26A35.4,35.4,0,0,1,417.83,218Z" transform="translate(-223.79 -103.18)" fill="#ff2020"/>
    </g>
    <g>
      <path d="M394.42,225.6a18.42,18.42,0,0,1-1.69-1.74c-.48-.64-1-1.28-1.38-1.94a15.72,15.72,0,0,0,1.09,1.25,9.48,9.48,0,0,0,1.21,1.16,18.19,18.19,0,0,1-4-7.14,29.39,29.39,0,0,1-1.25-7.68c-.11-2.27-.05-4.43,0-6.25v-.85a4.34,4.34,0,0,0-.08-.52,3,3,0,0,0-.36-1,4,4,0,0,0-1.39-1.44,27.47,27.47,0,0,0-2.4-1.37c-1.11-.56-2.36-1.14-3.81-1.86-.72-.35-1.48-.74-2.3-1.2a24.86,24.86,0,0,1-3.05-2,15.75,15.75,0,0,1-2.63-2.53,15,15,0,0,1-1.9-3.11l-.7-1.55-.48-1.14c-.33-.82-.67-1.64-1-2.63a19.58,19.58,0,0,1-1.07-7.15,19.1,19.1,0,0,1,2-7.24,20.4,20.4,0,0,1,1.82-3.05,15.54,15.54,0,0,1,3.06-3.19,17,17,0,0,1,3.22-1.9c.93-.42,1.51-.64,1.32-.74a4.16,4.16,0,0,0-2.05.32,11.17,11.17,0,0,0-3.48,1.92,16.68,16.68,0,0,0-3.11,3.27,21.61,21.61,0,0,0-1.89,3.14,18.52,18.52,0,0,0-1.8,11.74,23.29,23.29,0,0,0,.85,3.37c.32,1,.66,1.86,1,2.68l.47,1.14.72,1.64a17.1,17.1,0,0,0,2,3.33,17.58,17.58,0,0,0,2.79,2.73,27.12,27.12,0,0,0,3.22,2.17c.85.49,1.61.9,2.32,1.28,1.44.76,2.64,1.38,3.65,2,.51.3.94.58,1.33.85l.26.2a.63.63,0,0,1,.2.16c.06.07.14.13.17.18a1.23,1.23,0,0,1,.16,1.29l-.08.13c0,.07-.06,0-.1.23l-.13.47-.18,1.08c-.24,1.5-.49,3.11-.64,4.91a24.71,24.71,0,0,0,0,7l.15.88.25,1a19.42,19.42,0,0,0,.58,1.9c.26.66.53,1.31.83,1.94a18.69,18.69,0,0,0,1.1,1.93l.6.93c.23.3.48.6.72.89.49.57,1,1.13,1.5,1.63s1.1.94,1.66,1.36l.82.61.83.47a14.7,14.7,0,0,0,3.09,1.38,15.61,15.61,0,0,0,2.53.6,7.63,7.63,0,0,0,3-.16.65.65,0,0,0,.18-.94,9,9,0,0,0-2.2-1.42c-.51-.24-1.18-.69-1.86-1.08-.35-.21-.71-.4-1.09-.66l-1.17-.87a18,18,0,0,1-2.42-2.21,15.8,15.8,0,0,1-1.12-1.39,10.86,10.86,0,0,1-1-1.53A15.37,15.37,0,0,0,394.42,225.6Z" transform="translate(-223.79 -103.18)" fill="#ff2020"/>
      <path d="M398.15,220.9a13,13,0,0,1-1-1.1c-.27-.42-.57-.81-.81-1.23a8.16,8.16,0,0,0,.7.74,4.07,4.07,0,0,0,.76.68,12.53,12.53,0,0,1-2.45-4.58,23.41,23.41,0,0,1-1-5.94c-.11-2-.07-3.89,0-5.76a17,17,0,0,0-.05-2.59,7.75,7.75,0,0,0-.64-2.41,9.47,9.47,0,0,0-3.22-3.8,25.45,25.45,0,0,0-3.51-2.1c-1.28-.66-2.6-1.27-4-1.94-.68-.33-1.36-.68-2-1.06a18.16,18.16,0,0,1-2.12-1.36,10,10,0,0,1-1.84-1.72,9.2,9.2,0,0,1-1.25-2.17c-.36-.8-.65-1.47-.95-2.17s-.57-1.41-.82-2.17a13.91,13.91,0,0,1-.77-4.92,13,13,0,0,1,1.33-4.86,11.61,11.61,0,0,1,3.1-4.14c1.17-1,2.51-1.39,2.29-1.62-.07-.1-.51-.13-1.12,0a5.54,5.54,0,0,0-2,1,12.94,12.94,0,0,0-3.35,4.38A13.18,13.18,0,0,0,372,175.4a14.45,14.45,0,0,0,.8,5.29c.25.79.54,1.52.82,2.24l.44,1,.52,1.21a10.79,10.79,0,0,0,1.37,2.4,11.66,11.66,0,0,0,2,1.92,21.44,21.44,0,0,0,2.3,1.54c.71.41,1.39.78,2.06,1.14,1.34.71,2.61,1.36,3.78,2a18.38,18.38,0,0,1,3,2.07,6.18,6.18,0,0,1,2.36,5,9.11,9.11,0,0,1-.18,1.4l-.16.8-.18,1.06c-.23,1.43-.47,2.91-.62,4.48a20.19,20.19,0,0,0-.09,5.83,14.25,14.25,0,0,0,2.14,5.65l.43.65.52.61a14.39,14.39,0,0,0,1.06,1.13c.39.33.78.64,1.17.92l.58.41.6.32a10.41,10.41,0,0,0,4.08,1.23,4.93,4.93,0,0,0,2.26-.33.65.65,0,0,0,.18-.94,5.31,5.31,0,0,0-1.53-1.26c-.37-.2-.77-.55-1.22-.84-.22-.16-.46-.29-.7-.48l-.71-.6a11.37,11.37,0,0,1-2.68-3.24A9.27,9.27,0,0,0,398.15,220.9Z" transform="translate(-223.79 -103.18)" fill="#ff2020"/>
      <path d="M401.88,216.2c-.1-.18-.24-.29-.32-.47s-.17-.33-.25-.51c.09.11.22.15.32.24a1.1,1.1,0,0,0,.31.2,10.19,10.19,0,0,1-.87-2,16.63,16.63,0,0,1-.71-4.21c-.1-1.64-.09-3.34,0-5.27,0-.6,0-1.16,0-1.79a14.66,14.66,0,0,0-.11-2,13.67,13.67,0,0,0-1-3.83,15.29,15.29,0,0,0-4.95-6.2,29.41,29.41,0,0,0-4.62-2.84c-1.44-.74-2.83-1.38-4.09-2-.63-.31-1.23-.62-1.77-.92a13.28,13.28,0,0,1-1.18-.75,4.52,4.52,0,0,1-1.66-2.13l-.71-1.63c-.24-.6-.48-1.2-.65-1.73a7.83,7.83,0,0,1-.48-2.68,7,7,0,0,1,.68-2.49,7.18,7.18,0,0,1,1.32-2c.12-.11.13-.17.12-.26l-.07-.33c0-.23-.24-.45-.69-.1a7.17,7.17,0,0,0-1.71,2.35,7.29,7.29,0,0,0-.84,2.87,8.66,8.66,0,0,0,.5,3.13c.17.57.41,1.18.66,1.8l.72,1.72a5.62,5.62,0,0,0,.76,1.43,6.58,6.58,0,0,0,1.17,1.13,13.69,13.69,0,0,0,1.37.93c.56.33,1.16.67,1.79,1,1.24.67,2.57,1.35,3.9,2.11a26.34,26.34,0,0,1,4,2.74,11.58,11.58,0,0,1,4.53,8.77,24.06,24.06,0,0,1-.53,4.61c-.23,1.37-.45,2.72-.6,4.05a16.45,16.45,0,0,0-.21,4.62c.34,2.73,2,5.16,3.95,5.89a5.79,5.79,0,0,0,2.54.5,2.87,2.87,0,0,0,1.55-.52.64.64,0,0,0,.19-.93,3.28,3.28,0,0,0-.86-1.1c-.24-.15-.37-.42-.59-.6s-.22-.18-.31-.3a2.43,2.43,0,0,0-.24-.32,6,6,0,0,1-.83-1.37A3.71,3.71,0,0,0,401.88,216.2Z" transform="translate(-223.79 -103.18)" fill="#ff2020"/>
      <path d="M404.22,213.25a.47.47,0,0,1-.06.09l-.05,0,0,0,.05-.06a1.4,1.4,0,0,1,.2-.16l.09-.06.15-.1-.09.06,0,0-.06,0-.13.1a.86.86,0,0,0-.14.13l0,0,0,0,0,0-.05,0s.05-.06.07-.07a1.19,1.19,0,0,1,.18-.15l.09-.06a.41.41,0,0,0,.12-.09c.16-.11.32-.22.48-.31l.49-.24c.21-.11.53-.28.8-.39l.43-.17.07,0h0s0,0,0,0a8.49,8.49,0,0,1-.44-2.48c-.06-.64-.08-1.37-.09-2.15s0-1.57,0-2.63c0-.76.06-1.44.07-2.27a22.44,22.44,0,0,0-.16-2.72,19.28,19.28,0,0,0-1.35-5.23,21.09,21.09,0,0,0-6.65-8.6,33.3,33.3,0,0,0-5.71-3.59c-1.61-.83-3.07-1.5-4.23-2.08-.59-.29-1.11-.56-1.51-.78a1.19,1.19,0,0,1-.23-.16.81.81,0,0,1-.25-.35v0h0l-.08-.2-.36-.83c-.2-.5-.39-1-.48-1.28a2.88,2.88,0,0,1-.16-.58s0,0,0,0c-.28,0-.4.05-.61.06l-.43,0H384l.19,0,.35.08.58.15s0-.12.08-.3l.1-.26,0-.07v0h0l-.06,0a15.68,15.68,0,0,1-3.13-3,5.92,5.92,0,0,1-.8-1.4,1.71,1.71,0,0,1-.07-.26,2.26,2.26,0,0,0,.12.38,6.35,6.35,0,0,0,1,1.57,13.59,13.59,0,0,0,1.41,1.5l.43.38.31.26s0,0,0,0a2.59,2.59,0,0,0-.3.51c-.24.47-.18.53-.26.49s0,0,0,.16a6.35,6.35,0,0,0,.2.79c.1.36.29.86.49,1.37l.35.85.09.19v0l0,.11a1.6,1.6,0,0,0,.51.79,4.79,4.79,0,0,0,.42.33c.42.25.95.55,1.52.86,1.15.62,2.55,1.33,4,2.17.75.42,1.54.9,2.33,1.42l.61.41.66.47c.49.35,1,.71,1.45,1.12a17.5,17.5,0,0,1,6.66,12.52,15.1,15.1,0,0,1,0,1.78c0,.57-.06,1.24-.13,1.69l-.2,1.47-.17,1c-.23,1.31-.44,2.52-.59,3.62a13.46,13.46,0,0,0-.33,3.42,3.13,3.13,0,0,0,.61,1.74l.08.12.11.06a1.13,1.13,0,0,1,.18.12.66.66,0,0,1,.21,0l.09,0h.13a2.6,2.6,0,0,0,1-.24,1.75,1.75,0,0,0,.84-.69.64.64,0,0,0,.18-.93,4.13,4.13,0,0,0-.19-.93l0-.1,0-.1,0-.1,0,0v0l0,.09a4.25,4.25,0,0,1-.21.43l-.12.22-.06.12,0,.05a2.67,2.67,0,0,1-.26.5,5.08,5.08,0,0,1-.38.52s-.06.05,0,0l.07-.08.15-.12a.6.6,0,0,1,.15-.09,4.44,4.44,0,0,1,.38-.27C404.09,213.32,404.06,213.47,404.22,213.25Z" transform="translate(-223.79 -103.18)" fill="#ff2020"/>
    </g>
    <g>
      <path d="M385.42,246.89a31,31,0,0,1-5.44-3.5l.91.67,1,.6a21.43,21.43,0,0,0,2,1.14,34.8,34.8,0,0,1-9.05-7.66,45.25,45.25,0,0,1-7.26-11.75A47.31,47.31,0,0,1,364,213.45a29.89,29.89,0,0,1,1.38-13.92,18.79,18.79,0,0,1,1.77-3.49,17.34,17.34,0,0,1,1.25-1.64l1.32-1.38a16.72,16.72,0,0,0,3.06-4.16c2.58-4.86,3.53-11.21,4.09-17.25a20.63,20.63,0,0,0-8.06-17.76c-1.14-.86-2.44-1.72-3.8-2.65a41.49,41.49,0,0,1-4.21-3.22,16,16,0,0,1-3.87-5,11.51,11.51,0,0,1-.85-7.09,12.28,12.28,0,0,1,3.32-6.05,13.41,13.41,0,0,1,2.65-2.09,13.6,13.6,0,0,1,3.08-1.33,16.15,16.15,0,0,1,6.25-.55c3.16.34,5.31,1.26,5.12,1a13.65,13.65,0,0,0-5.71-1.53,15.19,15.19,0,0,0-9.66,2.36,13.68,13.68,0,0,0-3.75,3.72,12.36,12.36,0,0,0-2,5.21,12,12,0,0,0,.66,5.67,13.64,13.64,0,0,0,2.73,4.44,33.67,33.67,0,0,0,6.4,5.27c1,.69,2,1.34,2.84,2l.63.47.56.47a14,14,0,0,1,1.07,1,19.16,19.16,0,0,1,3.5,4.67,19.79,19.79,0,0,1,2.37,11.23,57.14,57.14,0,0,1-2.53,12.81,21.93,21.93,0,0,1-2.55,5.18,14.54,14.54,0,0,1-1.7,2l-.45.44-.79.79c-.3.3-.59.6-.87.91l-.74,1a21.62,21.62,0,0,0-3.55,8.25,34.12,34.12,0,0,0-.7,8.09,43.34,43.34,0,0,0,.91,7.7,48.11,48.11,0,0,0,2.09,7.31c.29.85.63,1.66,1,2.47s.7,1.62,1.11,2.46a40.67,40.67,0,0,0,3.24,5.56,37.56,37.56,0,0,0,7.23,7.75,29.94,29.94,0,0,0,8.51,4.83,25.87,25.87,0,0,0,7.47,1.59c.51,0,1,.06,1.42.07l1.2-.07a15.82,15.82,0,0,0,1.65-.18c.63-.17.6-.34,0-.48-.34-.08-.85-.17-1.5-.26s-1.44-.17-2.36-.38l-1.48-.28c-.52-.11-1.06-.29-1.63-.44a31.59,31.59,0,0,1-3.68-1.26,32.74,32.74,0,0,1-8.05-4.9A31.94,31.94,0,0,0,385.42,246.89Z" transform="translate(-223.79 -103.18)" fill="#ff2020"/>
      <path d="M386.7,244.17a28.27,28.27,0,0,1-4.9-3.16l.83.6.87.54a17.5,17.5,0,0,0,1.78,1,31.69,31.69,0,0,1-8.23-7,42,42,0,0,1-6.77-10.95,43.83,43.83,0,0,1-3.25-12.1,26.81,26.81,0,0,1,1.18-12.5,15.08,15.08,0,0,1,1.47-2.92,14.54,14.54,0,0,1,1-1.33c.37-.4.79-.85,1.13-1.19a19.53,19.53,0,0,0,3.64-4.91c4.92-11.24,7.4-26.12-1.4-35.67a24.21,24.21,0,0,0-3.4-3.16c-1.25-.94-2.58-1.82-3.91-2.73a39.09,39.09,0,0,1-3.9-3,13,13,0,0,1-3.16-4,8.44,8.44,0,0,1-.63-5.2,9.22,9.22,0,0,1,2.51-4.56,10.26,10.26,0,0,1,4.44-2.65,13.31,13.31,0,0,1,5.09-.45c2.64.28,4.51,1.06,4.35.82a11.11,11.11,0,0,0-4.84-1.33,12.31,12.31,0,0,0-7.77,1.86,10,10,0,0,0-4.46,6.84,8.88,8.88,0,0,0,.5,4.22,10.56,10.56,0,0,0,2.15,3.5,31.53,31.53,0,0,0,5.85,4.78,38.72,38.72,0,0,1,5.5,4.22,21.93,21.93,0,0,1,4,5.38,22.71,22.71,0,0,1,2.73,12.93,60.68,60.68,0,0,1-2.68,13.52,24.59,24.59,0,0,1-2.9,5.88,18.57,18.57,0,0,1-2,2.44l-.56.54-.69.68-.71.74-.61.8a18.49,18.49,0,0,0-3,7.09,30.72,30.72,0,0,0-.64,7.37,39.78,39.78,0,0,0,.84,7.17,44.59,44.59,0,0,0,1.95,6.87c.27.8.59,1.56.91,2.32s.66,1.53,1,2.32a37.16,37.16,0,0,0,3,5.2,34.37,34.37,0,0,0,6.68,7.17,27,27,0,0,0,7.73,4.38,23,23,0,0,0,6.73,1.39l1.28.06,1.08-.07a15,15,0,0,0,1.49-.19c.63-.17.61-.33,0-.48-.31-.08-.77-.17-1.35-.26s-1.3-.16-2.12-.36l-1.32-.26c-.46-.1-.94-.26-1.45-.4a31,31,0,0,1-3.29-1.14,29.88,29.88,0,0,1-7.23-4.43A28.49,28.49,0,0,0,386.7,244.17Z" transform="translate(-223.79 -103.18)" fill="#ff2020"/>
      <path d="M388,241.46a24.13,24.13,0,0,1-4.36-2.83l.74.54.78.48a15.56,15.56,0,0,0,1.59.91,28.87,28.87,0,0,1-7.42-6.33A40.67,40.67,0,0,1,370,212.84a24.39,24.39,0,0,1,1-11.1,13.24,13.24,0,0,1,1.18-2.35,10.9,10.9,0,0,1,.77-1l.42-.45.22-.24.3-.3a22.53,22.53,0,0,0,4.22-5.66,36.71,36.71,0,0,0,3.38-9.77c.36-1.65.63-3.3.86-4.94l.32-2.46c.08-.83.19-1.6.24-2.51a26.91,26.91,0,0,0-6.59-19.41,26.47,26.47,0,0,0-3.85-3.56c-1.36-1-2.72-1.92-4-2.82-2.57-1.75-5-3.61-6-5.76a5.49,5.49,0,0,1-.42-3.32,6.24,6.24,0,0,1,1.71-3.06,8.46,8.46,0,0,1,7.08-2.23c2.13.21,3.71.85,3.58.63a8.51,8.51,0,0,0-4-1.14,9.29,9.29,0,0,0-5.88,1.37,7,7,0,0,0-3.16,4.73,6.71,6.71,0,0,0,1.93,5.34,28.68,28.68,0,0,0,5.29,4.29c1,.67,2,1.36,3,2.09a27,27,0,0,1,2.92,2.46,25.32,25.32,0,0,1,4.57,6.08,25.77,25.77,0,0,1,3.09,14.64,63.78,63.78,0,0,1-2.83,14.22,28.32,28.32,0,0,1-3.25,6.6,20.91,20.91,0,0,1-2.38,2.85c-.45.44-.92.88-1.25,1.23l-.55.56-.48.63a15.48,15.48,0,0,0-2.54,5.94,27.74,27.74,0,0,0-.58,6.63,36.15,36.15,0,0,0,.77,6.65,41.72,41.72,0,0,0,1.81,6.43c.26.76.55,1.46.85,2.18s.61,1.42,1,2.16a35.19,35.19,0,0,0,2.81,4.86,31.36,31.36,0,0,0,6.13,6.58,23.79,23.79,0,0,0,7,3.92,18.06,18.06,0,0,0,9.41,1c.63-.17.61-.33,0-.48a12,12,0,0,0-1.2-.26,16.51,16.51,0,0,1-1.87-.34l-1.16-.24c-.41-.09-.84-.24-1.29-.36a28.93,28.93,0,0,1-2.88-1,26.88,26.88,0,0,1-6.43-4A25.43,25.43,0,0,0,388,241.46Z" transform="translate(-223.79 -103.18)" fill="#ff2020"/>
      <path d="M389.27,238.75a21.51,21.51,0,0,1-3.82-2.51l.65.48.7.42a12.06,12.06,0,0,0,1.39.79,25.86,25.86,0,0,1-6.59-5.65,37.72,37.72,0,0,1-8.6-19.74,21.41,21.41,0,0,1,.78-9.69,9.52,9.52,0,0,1,.88-1.78,6.87,6.87,0,0,1,.52-.71l.29-.3.13-.16.34-.34a25.29,25.29,0,0,0,4.8-6.42,39.83,39.83,0,0,0,3.68-10.56c.38-1.74.66-3.46.89-5.16l.33-2.53c.09-.86.19-1.58.25-2.64a29.53,29.53,0,0,0-11.62-25.58c-1.47-1.1-2.86-2-4.12-2.89a32.26,32.26,0,0,1-3.29-2.49,7.37,7.37,0,0,1-1.73-2.07,2.59,2.59,0,0,1-.21-1.42,3.38,3.38,0,0,1,.9-1.57,4,4,0,0,1,.85-.68l.46-.25c.17-.07.36-.14.56-.2a7,7,0,0,1,2.77-.24c1.61.16,2.92.64,2.81.44a6.09,6.09,0,0,0-3.09-.93,6.41,6.41,0,0,0-4,.86,4.13,4.13,0,0,0-1.84,2.64,3.14,3.14,0,0,0,.17,1.35,4.76,4.76,0,0,0,1,1.6,26.59,26.59,0,0,0,4.73,3.8c1,.67,2,1.37,3.08,2.15l.81.6.83.68c.57.45,1.08.95,1.6,1.45a28.28,28.28,0,0,1,5.11,6.79,28.61,28.61,0,0,1,3.44,16.34c0,.37-.06.68-.09,1l-.11.91-.24,1.83c-.17,1.23-.36,2.47-.59,3.71a50.35,50.35,0,0,1-1.94,7.49,30.64,30.64,0,0,1-3.6,7.31,24.23,24.23,0,0,1-2.73,3.28l-.77.75-.19.18-.09.1-.19.19-.4.39-.34.46a12.32,12.32,0,0,0-2,4.79,24.79,24.79,0,0,0-.53,5.9A33.7,33.7,0,0,0,372,217a38.72,38.72,0,0,0,1.67,6,35.9,35.9,0,0,0,4.27,8.55c3.22,4.69,7.75,8.15,11.76,9.47a15.46,15.46,0,0,0,8.25.76c.63-.17.61-.33,0-.48a10,10,0,0,0-1.05-.26,14.39,14.39,0,0,1-1.63-.32l-1-.21c-.36-.09-.72-.23-1.11-.33a25.68,25.68,0,0,1-2.49-.9,24.26,24.26,0,0,1-5.62-3.51A22.84,22.84,0,0,0,389.27,238.75Z" transform="translate(-223.79 -103.18)" fill="#ff2020"/>
    </g>
  </g>
  <g id="body" className="bodyLeft">
    <path d="M245.08,323.63c2.1,0,4.49-6,5.07-7.61a39.75,39.75,0,0,0,1.94-10.71c.62-8.36-.13-19.27,7.81-24.59,7.6-5.1,18.63-3.57,27.26-5.33,5.85-1.19,8.51-5,8.84-10.89.11-1.93-2.89-1.92-3,0-.17,3-1.22,5.89-4,7.25-2.64,1.29-6.1,1.22-9,1.56-4.46.54-9,.9-13.41,1.77-7.66,1.52-13.19,5.81-15.54,13.38-2.56,8.25-.78,17.16-3.37,25.37-1,3-2.47,4.8-4.24,7.36a5.3,5.3,0,0,0-1.32,2.41,2.71,2.71,0,0,0,2.93,3c1.92,0,1.93-3,0-3Z" transform="translate(-223.79 -103.18)"/>
    <path d="M299.42,267.59c-4.09,3.11-2.87,5.42-3.65,10.1-.55,3.28,0,4.8,1.55,7.72a32.17,32.17,0,0,0,2.19,4.3c1,1.4,2.82,2,3.57,3.76,1.76,4.07-3.69,7.87-7,4.81-.93-.85-1.18-2-2.29-2.84a1.51,1.51,0,0,0-2.05.53c-1,1.69-.33,2.9-.83,4.56-1.71,5.68-9.93-1.1-6.35-5,1.31-1.41-.81-3.54-2.12-2.12-3.7,4-1.54,9.48,3.15,12a6.4,6.4,0,0,0,6.36-.33c3.51-2.31.55-4.42,2.38-7.58l-2.06.54c1.35,1,1.41,2.94,3,3.78,1.33.7,3.8.57,5.18.35,2.94-.47,6.42-2.8,6.55-6.06.17-4.25-4.1-6.69-5.89-9.91-.83-1.48-2.26-3.54-2.56-5.12-.44-2.34.7-9.62,2.37-10.89,1.52-1.15,0-3.76-1.51-2.59Z" transform="translate(-223.79 -103.18)"/>
    <path d="M260.9,325a49,49,0,0,0,14.38-6.45c4.56-3.17,6.65-7.75,10.57-11.44,1.4-1.33-.72-3.45-2.13-2.12-3.67,3.46-5.71,8-10,11a45.35,45.35,0,0,1-13.66,6.14,1.51,1.51,0,0,0,.8,2.9Z" transform="translate(-223.79 -103.18)"/>
    <path d="M260.1,305c4.79,1.34,11.44-2.67,15-5.63a24,24,0,0,0,5.72-6.92c1.63-3,1.86-6.57,3.59-9.46a1.5,1.5,0,0,0-2.59-1.51c-2.43,4.05-2.61,8.74-5.71,12.59a20.88,20.88,0,0,1-6.11,5.19c-2.13,1.18-6.73,3.51-9.1,2.84a1.51,1.51,0,0,0-.8,2.9Z" transform="translate(-223.79 -103.18)"/>
    <path d="M254.14,327.54a43.92,43.92,0,0,0,1-7c.15-2.88-.59-5.76-.18-8.57.39-2.64,1.78-4.36,2.85-6.7a34.87,34.87,0,0,0,1.95-7.46c1.37-6.46,5.56-10.63,12-12.12,4.66-1.07,9-1.17,12.71-4.54,1.42-1.31-.7-3.43-2.12-2.12-4.39,4-11.27,2.9-16.41,5.57a16.85,16.85,0,0,0-8.35,9.46c-.9,2.65-1,5.49-1.84,8.14s-2.62,4.95-3.58,7.58a9.44,9.44,0,0,0-.39,4.74,36.7,36.7,0,0,1-.57,12.27c-.4,1.88,2.49,2.68,2.9.79Z" transform="translate(-223.79 -103.18)"/>
    <path d="M249.2,305.29c-5.8,0-10.33,3-14.65,6.66-4.48,3.73-9.71,8.29-10.63,14.41-.61,4.05.86,8.56,4.68,10.51,6.26,3.2,13.51.42,18.77,6.38,1.29,1.45,3.4-.68,2.13-2.12a15.83,15.83,0,0,0-8.16-4.83c-4.39-1.17-12-.22-14-5.18-2.38-5.94,2.85-11.33,6.9-15,4.26-3.84,8.91-7.82,14.92-7.86a1.5,1.5,0,0,0,0-3Z" transform="translate(-223.79 -103.18)"/>
    <path d="M252.34,346.44c1.25-.12,2.6,2.64,3.46,3.33,1.3,1,3,1.64,4.39,2.6,2,1.4,3.53,3.46,5.25,5.19a1.5,1.5,0,0,0,2.12-2.12c-2.05-2.06-3.82-4.34-6.28-5.94a22.5,22.5,0,0,1-4.95-3.64c-1-1.13-2.33-2.58-4-2.42-1.91.18-1.93,3.18,0,3Z" transform="translate(-223.79 -103.18)"/>
    <path d="M268,336c3.77,3.54,5.3,8.83,9.75,11.77,1.62,1.06,3.12-1.54,1.52-2.6-4.13-2.72-5.61-8-9.15-11.29-1.4-1.32-3.53.79-2.12,2.12Z" transform="translate(-223.79 -103.18)"/>
    <path d="M262.38,349.46c-.85-1.1-.35-3-.28-4.28a8.18,8.18,0,0,0-.67-4c-.78-1.76-3.37-.23-2.59,1.52.67,1.48.1,3.31.1,4.87a6,6,0,0,0,1.32,4c1.18,1.52,3.28-.61,2.12-2.12Z" transform="translate(-223.79 -103.18)"/>
    <path d="M268.45,351.6a46,46,0,0,1-.88-16.62c.24-1.91-2.77-1.89-3,0a48.19,48.19,0,0,0,1,17.42c.45,1.88,3.35,1.08,2.9-.8Z" transform="translate(-223.79 -103.18)"/>
    <path d="M273.85,349.47a32.68,32.68,0,0,1-.93-9.8c.1-1.93-2.9-1.93-3,0a35.71,35.71,0,0,0,1,10.6c.47,1.87,3.36,1.08,2.9-.8Z" transform="translate(-223.79 -103.18)"/>
    <path d="M294.9,262.05c-4.17-.62-3.14-9.48-2.41-12.19,1.5-5.66,8.26-12,14-6.4,7.37,7.22,6.57,22.54-6,22.54a1.5,1.5,0,0,0,0,3c6.67,0,13-4.58,13.79-11.45.75-6.46-3.2-17-10.1-18.81s-12.93,4-14.6,10.33c-1.08,4.09-1.95,14.91,4.51,15.88,1.89.28,2.7-2.61.8-2.9Z" transform="translate(-223.79 -103.18)"/>
    <path d="M246.31,327l.19-.22-1.85-1.05-.52.59a1.51,1.51,0,0,0-1.1,1.44,54.46,54.46,0,0,0,.66,6.39,3,3,0,0,0,3.2,2.48,5.71,5.71,0,0,0,4-2.62,11.19,11.19,0,0,0,1.41-2.47c.4-1,.43-2.33.94-3.2l-.89.69-.12,0-.89-.69.15.28c.91,1.7,3.5.19,2.59-1.51a2,2,0,0,0-2.53-.94c-1.46.59-1.36,2.27-1.76,3.56-.25.77-2.1,4.6-3.08,3.74-.39-.34-.28-2.08-.33-2.59l-.31-3.09-1.1,1.45a3.53,3.53,0,0,0,2.61-4.28,1.48,1.48,0,0,0-1.84-1,3.47,3.47,0,0,0-1.51,1c-1.29,1.43.83,3.56,2.12,2.12Z" transform="translate(-223.79 -103.18)"/>
    <path d="M258.74,304.8c4.05,2.83,4,6.89,3.5,11.4-.54,4.78-4.11,7.53-7.92,10-1.62,1-.12,3.63,1.52,2.59,5-3.17,8.75-6.54,9.4-12.56.68-6.26.25-10.33-5-14-1.59-1.11-3.09,1.49-1.52,2.6Z" transform="translate(-223.79 -103.18)"/>
    <path d="M264.9,330.05c-1.24-.2-2.48-.36-3.72-.57s-3.31-.31-3.47-1.87c-.2-1.9-3.2-1.92-3,0,.51,4.78,5.7,4.74,9.39,5.34,1.89.3,2.7-2.59.8-2.9Z" transform="translate(-223.79 -103.18)"/>
    <path d="M266,330.08c-6.89,2.74-12.24,6.74-17.62,11.84a1.51,1.51,0,0,0,0,2.12c2.46,2.33,4.07,3.75,7,1.62,4.78-3.42,8.29-9.15,14.34-10.36a1.51,1.51,0,0,0,.89-2.2c-.94-1.78-3.46-3.71-5.14-1.77-1.26,1.45.85,3.58,2.12,2.12l.43,1.16.9-2.2a17.81,17.81,0,0,0-8.56,4.83c-1.54,1.41-3,2.92-4.58,4.27a9.71,9.71,0,0,1-2,1.63c-1.71.73-2,0-3.32-1.22V344c5-4.7,9.92-8.52,16.3-11.07,1.77-.7,1-3.61-.8-2.89Z" transform="translate(-223.79 -103.18)"/>
    <path d="M251,342l0,.06,2.06-.54-.08,0,.54,2.05c.5-.9,2.09-1.72,2.9-2.39a39.08,39.08,0,0,1,3.33-2.5c2.14-1.44,3.89-3.58,6.5-4.14,1.88-.4,1.09-3.29-.8-2.89-3.15.67-5.36,3.14-7.92,4.89-1.25.85-2.41,1.83-3.57,2.8-.94.78-2.44,1.64-3,2.72a1.51,1.51,0,0,0,.54,2.05l.07,0a1.55,1.55,0,0,0,2.05-.54l0-.05c1.17-1.54-1.43-3-2.59-1.52Z" transform="translate(-223.79 -103.18)"/>
    <path d="M264.6,343.39c1.26,1.41,3,1.54,4.76,1.56,2.75,0,5.49,0,8.24,0a1.5,1.5,0,0,0,0-3L272,342c-1.4,0-4.2.46-5.24-.7-1.29-1.44-3.41.69-2.12,2.12Z" transform="translate(-223.79 -103.18)"/>
    <path d="M257.63,350.62a108.41,108.41,0,0,1,12.35,1c1.89.26,2.71-2.63.8-2.9a118.17,118.17,0,0,0-13.15-1.11c-1.93-.05-1.93,2.95,0,3Z" transform="translate(-223.79 -103.18)"/>
    <path d="M254.84,340.08l1,.64-1.5,1.5a30.93,30.93,0,0,1,12.56,2.42c1.75.75,3.29-1.83,1.51-2.59a34.37,34.37,0,0,0-14.07-2.83,1.52,1.52,0,0,0-1.5,1.5c.23,1.86,1.76,2.88,3.51,1.95s.19-3.5-1.51-2.59Z" transform="translate(-223.79 -103.18)"/>
  </g>
  <g id="Just_hair" data-name="Just hair" className="hairLeft">
    <path d="M288,254" transform="translate(-223.79 -103.18)" fill="none" stroke="#ff4d4d" stroke-miterlimit="10" stroke-width="0.25"/>
    <path d="M294.18,246.24" transform="translate(-223.79 -103.18)" fill="none" stroke="#ff4d4d" stroke-miterlimit="10" stroke-width="0.25"/>
    <path d="M287.52,215.3" transform="translate(-223.79 -103.18)" fill="none" stroke="#ff4d4d" stroke-miterlimit="10" stroke-width="0.25"/>
    <g>
      <path d="M277.11,246.89a43.79,43.79,0,0,1-3.87-2.79c.9.64,1.83,1.27,2.79,1.85a53.45,53.45,0,0,1-6.83-5.62,42.84,42.84,0,0,1-6.74-8.19,27.11,27.11,0,0,1-4-10.06,17.81,17.81,0,0,1,0-5.83,16.7,16.7,0,0,1,.75-2.92l.42-1.17c.11-.32.25-.63.33-1A23.65,23.65,0,0,0,261,203a21.22,21.22,0,0,0-1.16-6.15,16.6,16.6,0,0,0-1.27-2.73,13.06,13.06,0,0,0-.79-1.24,9.15,9.15,0,0,0-.86-1.07,27.62,27.62,0,0,0-5.09-4,41.74,41.74,0,0,1-6.38-4.87A27.93,27.93,0,0,1,237,168.49a22.56,22.56,0,0,1-.06-8.78,20.33,20.33,0,0,1,3.52-8.29c1.46-2,3-3.19,2.7-3.16a10.64,10.64,0,0,0-3.36,3.29A21.78,21.78,0,0,0,236,164.62a25.18,25.18,0,0,0,3.91,12.63,33.21,33.21,0,0,0,8.68,9.21c3.32,2.37,6.28,4,7.9,6a8.2,8.2,0,0,1,.58.74l.56.84.5.91c.16.3.29.63.44.94a18.1,18.1,0,0,1,1.18,4.12,21.82,21.82,0,0,1-.37,8.74l-.28,1-.35,1c-.1.34-.26.66-.39,1l-.23.57-.33.86a18.87,18.87,0,0,0-1.12,7.07,27.83,27.83,0,0,0,3.63,12.29,39.11,39.11,0,0,0,5.22,7.51,40.78,40.78,0,0,0,11.78,9.15c3.89,2,7.54,2.62,8.88,2.49.51-.08.52-.24.1-.46s-1.61-.61-3-1.19a44.44,44.44,0,0,1-10.51-6.44A44.65,44.65,0,0,0,277.11,246.89Z" transform="translate(-223.79 -103.18)" fill="#ff2020"/>
      <path d="M278.65,244.31a42,42,0,0,1-3.59-2.59c.84.59,1.71,1.17,2.6,1.71a50.1,50.1,0,0,1-6.37-5.25,40.55,40.55,0,0,1-6.27-7.6,24.3,24.3,0,0,1-3.59-8.93,15.07,15.07,0,0,1,0-4.88,27.93,27.93,0,0,1,1.4-4.61,26.93,26.93,0,0,0,1.2-9.28,24.06,24.06,0,0,0-1.34-7,18.46,18.46,0,0,0-3.54-6.07c-3.19-3.43-8-5.36-11.61-9A24.92,24.92,0,0,1,240,167.89a19.63,19.63,0,0,1-.06-7.6,17.35,17.35,0,0,1,3-7.06c1.22-1.63,2.43-2.64,2.2-2.64a8.06,8.06,0,0,0-2.81,2.7A18.77,18.77,0,0,0,239,164.54a22.09,22.09,0,0,0,3.46,11.12,29.93,29.93,0,0,0,7.88,8.36c3.07,2.23,6.26,3.95,8.39,6.43a18.49,18.49,0,0,1,4,9,24.76,24.76,0,0,1-.39,9.93l-.32,1.2-.39,1.16c-.29.81-.58,1.41-1,2.45a16,16,0,0,0-.95,5.95,24.79,24.79,0,0,0,3.22,10.92,36.83,36.83,0,0,0,4.84,7,38.05,38.05,0,0,0,11,8.56c3.61,1.83,6.81,2.31,7.93,2.15.51-.08.52-.24.1-.46s-1.35-.56-2.53-1.08a42.19,42.19,0,0,1-9.59-5.95A40.48,40.48,0,0,0,278.65,244.31Z" transform="translate(-223.79 -103.18)" fill="#ff2020"/>
      <path d="M280.19,241.74a37.29,37.29,0,0,1-3.31-2.41c.78.55,1.59,1.09,2.41,1.58a48.38,48.38,0,0,1-5.91-4.88,37.64,37.64,0,0,1-5.8-7,21.55,21.55,0,0,1-3.18-7.79,11.86,11.86,0,0,1,0-3.94,10.24,10.24,0,0,1,.47-1.87L265,215l.22-.61c.14-.41.32-.81.43-1.23A29.65,29.65,0,0,0,267,202.77a24,24,0,0,0-5.67-15,32.66,32.66,0,0,0-6.2-4.89,36.07,36.07,0,0,1-5.56-4.22,22,22,0,0,1-6.65-11.33A15.92,15.92,0,0,1,245.29,155c1-1.29,1.88-2.09,1.68-2.12a5.8,5.8,0,0,0-2.25,2.11,15.87,15.87,0,0,0-2.71,9.44,19,19,0,0,0,3,9.6,27,27,0,0,0,7.09,7.52c2.81,2.08,6.22,3.85,8.87,6.86a21.43,21.43,0,0,1,4.68,10.46,27.78,27.78,0,0,1-.41,11.13l-.36,1.34-.44,1.32c-.3.85-.71,1.76-1,2.48a12.68,12.68,0,0,0-.79,4.82,21.48,21.48,0,0,0,2.82,9.55A33.07,33.07,0,0,0,270,236a34.93,34.93,0,0,0,10.26,8c3.32,1.66,6.08,2,7,1.83.51-.08.52-.25.1-.47s-1.09-.51-2.11-1a40.68,40.68,0,0,1-8.66-5.46A41.53,41.53,0,0,0,280.19,241.74Z" transform="translate(-223.79 -103.18)" fill="#ff2020"/>
      <path d="M281.73,239.16a33.54,33.54,0,0,1-3-2.22c.72.51,1.47,1,2.22,1.45a45,45,0,0,1-5.45-4.52,34.69,34.69,0,0,1-5.33-6.41,18.75,18.75,0,0,1-2.77-6.66,8.84,8.84,0,0,1-.06-3,7.71,7.71,0,0,1,.33-1.36l.12-.36.25-.67c.16-.46.35-.91.48-1.37a32.84,32.84,0,0,0,1.51-11.4,26.92,26.92,0,0,0-6.47-17,35.66,35.66,0,0,0-6.75-5.35,33.72,33.72,0,0,1-5.15-3.9,19,19,0,0,1-5.77-9.74,13,13,0,0,1,1.82-9.85c.72-1,1.34-1.54,1.18-1.6a3.71,3.71,0,0,0-1.7,1.52A12.88,12.88,0,0,0,245,164.4a16,16,0,0,0,2.55,8.08,24.2,24.2,0,0,0,6.3,6.68c1.3,1,2.83,1.91,4.45,3a27,27,0,0,1,4.91,4.26,24.28,24.28,0,0,1,5.39,11.9,30.83,30.83,0,0,1-.43,12.34l-.4,1.48-.48,1.47c-.16.49-.38,1-.56,1.44l-.43,1.08a9.71,9.71,0,0,0-.63,3.69A18.71,18.71,0,0,0,268.1,228a30,30,0,0,0,4.07,6,32,32,0,0,0,9.5,7.36c3,1.5,5.34,1.71,6,1.5.51-.08.52-.24.1-.47a11.86,11.86,0,0,0-1.68-.86,39.74,39.74,0,0,1-7.74-5A37.29,37.29,0,0,0,281.73,239.16Z" transform="translate(-223.79 -103.18)" fill="#ff2020"/>
    </g>
    <g>
      <path d="M300.74,225.06a24.84,24.84,0,0,0,1.76-4.23,26.42,26.42,0,0,1-1,3.09,24.85,24.85,0,0,0,2.18-8.38,31,31,0,0,0-.88-9.81,32.85,32.85,0,0,0-1.5-4.59,21.55,21.55,0,0,0-1-2l-.11-.18,0-.05h0l.08,0,.17-.11c.21-.13.44-.3.63-.41a12.75,12.75,0,0,0,1.17-.8l.07,0c.47-.36-3.88,2.88-2,1.48l.18-.11.36-.24.37-.23.09-.06,0,0,0,0c-.08,0,.12,0,.19-.07l.27-.11s.32-.2,0,.18l-.66.77-.33.38-.07.09h0l0,0,.17.17.18.16.09.08h0c1-1.07-2.14,2.4,2.16-2.39l-.07,0-.13,0-1,.4-2.08.81-1-1.62a8.85,8.85,0,0,0-.75-1.13c-.55-.73-1.06-1.48-1.65-2.2l-1.8-2.14-2-2.09c-2.68-2.77-5.64-5.46-8.7-8.37-2.17-2.06-4.34-4.24-6.42-6.57-1-1.21-2.06-2.38-3-3.71a41.08,41.08,0,0,1-2.67-4.09c-.42-.7-.74-1.49-1.11-2.24a15.29,15.29,0,0,1-1-2.32l-.8-2.41c-.19-.82-.34-1.66-.5-2.5a27.59,27.59,0,0,1,.06-10.05c1.22-6.5,4.06-12.15,7.08-17.36a52,52,0,0,1,5.39-7.73,25.48,25.48,0,0,1,8-6.41c2.56-1.23,4.76-1.64,4.47-1.75a7,7,0,0,0-1.69.25c-.48.13-1,.3-1.64.51s-1.23.49-1.86.83a29.64,29.64,0,0,0-10.2,9.42c-1.26,1.77-2.39,3.59-3.43,5.39s-2,3.65-3,5.58a43.39,43.39,0,0,0-4,12.61,29.56,29.56,0,0,0-.15,7c.12,1.18.39,2.32.6,3.48.05.28.1.57.17.86l.27.83.54,1.66A39,39,0,0,0,276.1,174a107.52,107.52,0,0,0,8.36,8.91c2.78,2.74,5.47,5.37,7.87,8.05.57.67,1.2,1.33,1.73,2l1.6,2,1.41,2.08a8.11,8.11,0,0,1,.63,1.05l.33.59.66,1.15,2.55-1.28,1.28-.64.64-.32.16-.08h0l-3.21,3.58h0l0,0-.11-.07a2.27,2.27,0,0,1-.4-.29c-1.17.85,2.61-2.87,1.59-2.12l-.69.36c-.11.05,0,0,.07,0l-.94.58-.48.3-.24.15,3.44-2.57,0,0-.06.05-.49.36c-.34.25-.67.43-1.05.69l-1.15.73-.58.35-.27.15h0v0l.3.64.34.84a29.51,29.51,0,0,1,1.14,3.67,32.55,32.55,0,0,1,.85,7.94,28,28,0,0,1-2.87,12.34c-1.61,3.29-3.44,5.55-3.89,6.51-.28.53-.15.62.33.35a11.35,11.35,0,0,0,2.11-1.75,23.26,23.26,0,0,0,5.76-10.07A26.14,26.14,0,0,1,300.74,225.06Z" transform="translate(-223.79 -103.18)" fill="#ff2020"/>
      <path d="M303.44,226.38a29.49,29.49,0,0,0,1.95-4.72,28.23,28.23,0,0,1-1.13,3.44,27.46,27.46,0,0,0,2.42-9.31,34,34,0,0,0-.95-10.75,36.52,36.52,0,0,0-1.63-5,23,23,0,0,0-1.11-2.35,3.66,3.66,0,0,0-.3-.5s.13-.14.1-.15,0,0,0,.05.13,0,.09.14-.13.27-.09.31l.09.15.09.15,0,.08h0c.14-.15-.3.34.31-.33l0,0,0,0-.29-.19-.59-.36c-4.07-7-10.11-12-16.13-17.84-4.3-4.08-8.54-8.4-11.54-13.67a25.92,25.92,0,0,1-3-17.53c1.1-5.93,3.77-11.31,6.7-16.37a49.34,49.34,0,0,1,5.07-7.27,22.54,22.54,0,0,1,7-5.68c2.17-1,4-1.4,3.75-1.52a5.88,5.88,0,0,0-1.43.19c-.4.11-.87.25-1.38.42s-1,.42-1.58.71a26.67,26.67,0,0,0-9.12,8.49,74.74,74.74,0,0,0-6.12,10.51,40.37,40.37,0,0,0-3.75,11.72,26.9,26.9,0,0,0-.14,6.28c.11,1.05.36,2.07.54,3.1.05.26.09.52.15.78l.24.74.49,1.5a36.28,36.28,0,0,0,6.22,10.56,106.61,106.61,0,0,0,8.12,8.66c2.77,2.72,5.51,5.39,8,8.17.6.7,1.24,1.39,1.82,2.11l1.69,2.16,1.52,2.24a8.86,8.86,0,0,1,.69,1.14l.82,1.45,1.25-.25.62-.13.32-.07h.08L302,199.12h0l0,0-.06-.06a2.16,2.16,0,0,1-.25-.27c-.53.32,1.06-1.32.61-1l-.32.07c-.05,0,0,0,0,0l-.39.27-.2.14-.1.06,1.05-.78,0,0-.06.05-.49.36-.5.33h0v0l0,.07a17.57,17.57,0,0,1,.81,1.82,31.91,31.91,0,0,1,1.27,4,35.66,35.66,0,0,1,1,8.73,31.86,31.86,0,0,1-.91,7.48,31.16,31.16,0,0,1-2.33,6.32c-1.82,3.67-3.85,6.12-4.36,7.15-.28.53-.15.62.33.34a12.25,12.25,0,0,0,2.28-1.93,26.24,26.24,0,0,0,6.33-11.19A29.65,29.65,0,0,1,303.44,226.38Z" transform="translate(-223.79 -103.18)" fill="#ff2020"/>
      <path d="M306.13,227.7a32.41,32.41,0,0,0,2.14-5.21,31.11,31.11,0,0,1-1.25,3.79A30.63,30.63,0,0,0,309.67,216a36.79,36.79,0,0,0-1-11.68,39,39,0,0,0-1.76-5.42,28.63,28.63,0,0,0-1.25-2.65l-.21-.37a5.66,5.66,0,0,0-.33-.5,2.35,2.35,0,0,0-.17-.2s0,0,0,0l0,.08.07.17,0,.09s0,.07,0,0l-.1-.16-.19-.31-.64-1a10.82,10.82,0,0,0-.88-1.32c-.63-.85-1.22-1.73-1.88-2.53l-2-2.4-2.12-2.26c-2.87-3-5.9-5.72-8.89-8.58-2.15-2-4.18-4.07-6.09-6.2-.91-1.09-1.86-2.15-2.65-3.3a35,35,0,0,1-2.27-3.47c-.36-.59-.59-1.22-.9-1.83a11.73,11.73,0,0,1-.78-1.87l-.63-1.9c-.15-.65-.25-1.31-.39-2a21.37,21.37,0,0,1,.06-8c1-5.35,3.48-10.47,6.34-15.37a45.27,45.27,0,0,1,4.74-6.83,19.65,19.65,0,0,1,6-5c1.78-.85,3.23-1.15,3-1.27a7.51,7.51,0,0,0-3.59,1,23.75,23.75,0,0,0-8,7.56,71.77,71.77,0,0,0-5.85,10,37.39,37.39,0,0,0-3.48,10.84,23.11,23.11,0,0,0-.13,5.57c.09.92.32,1.82.47,2.73,0,.23.08.46.13.69l.22.66.43,1.32a33.17,33.17,0,0,0,5.71,9.68,103.93,103.93,0,0,0,7.89,8.4c2.75,2.71,5.53,5.42,8.12,8.3.63.74,1.29,1.44,1.9,2.2l1.79,2.28,1.64,2.4a12.75,12.75,0,0,1,.75,1.24l.64,1.15.4.72c-.08-.14-.16-.29-.23-.44s0-.07,0-.11.11.11.13.14.13.21.18.3a21.71,21.71,0,0,1,1,2.16,37.35,37.35,0,0,1,1.39,4.4,38.65,38.65,0,0,1,1.07,9.5,34,34,0,0,1-3.6,15.27,83.74,83.74,0,0,1-4.83,7.79c-.29.53-.16.62.32.34a13.82,13.82,0,0,0,2.44-2.12,27.49,27.49,0,0,0,3.64-4.75,29.33,29.33,0,0,0,3.27-7.57A32.58,32.58,0,0,1,306.13,227.7Z" transform="translate(-223.79 -103.18)" fill="#ff2020"/>
      <path d="M308.83,229a35.08,35.08,0,0,0,2.32-5.68,35,35,0,0,1-1.37,4.13,33.7,33.7,0,0,0,2.88-11.18,39.87,39.87,0,0,0-1.09-12.62,40.61,40.61,0,0,0-1.9-5.84c-.4-1-.81-1.88-1.38-3l-.26-.45-.18-.29-.12-.19-.22-.31-.31-.36h0v0s0,0,0,0l0,0-.44-.71-.45-.74-.49-.68c-.67-.9-1.31-1.84-2-2.7l-2.12-2.51-2.19-2.36c-3-3.06-6-5.85-9-8.67-2.13-2-4.09-4-5.91-6a36.87,36.87,0,0,1-2.48-3.09,30,30,0,0,1-2.07-3.16,16.35,16.35,0,0,1-.8-1.63,8.85,8.85,0,0,1-.69-1.63l-.56-1.66c-.12-.56-.2-1.13-.32-1.7a18.37,18.37,0,0,1,.05-6.93c.88-4.77,3.2-9.63,6-14.38a42.4,42.4,0,0,1,4.41-6.38,17.07,17.07,0,0,1,5.07-4.21c1.38-.66,2.45-.91,2.3-1a5,5,0,0,0-2.79.76c-5.14,2.61-9.29,9.66-12.56,16.22a34.65,34.65,0,0,0-3.22,10,20.28,20.28,0,0,0-.12,4.85c.08.8.29,1.58.41,2.37,0,.2.06.4.11.6l.19.57.38,1.16a30.17,30.17,0,0,0,5.2,8.78,99.7,99.7,0,0,0,7.65,8.15c2.75,2.7,5.57,5.45,8.25,8.43.66.77,1.34,1.49,2,2.29l1.89,2.4,1.75,2.56a13.44,13.44,0,0,1,.81,1.33l.36.64.11.22.09.18,0,.09s0,.08,0,0l-.09-.17,0,0h0l.12.13.18.23c.1.16.15.23.19.31l.13.21a22.9,22.9,0,0,1,1.15,2.5,39.32,39.32,0,0,1,1.52,4.77,37.37,37.37,0,0,1,.85,4.65,45.17,45.17,0,0,1,.33,5.63,38,38,0,0,1-1.1,9,37.25,37.25,0,0,1-2.87,7.68,83,83,0,0,1-5.3,8.43c-.28.52-.15.62.33.34A15.86,15.86,0,0,0,304,236a30.15,30.15,0,0,0,3.93-5.18,32.27,32.27,0,0,0,3.55-8.26A35.4,35.4,0,0,1,308.83,229Z" transform="translate(-223.79 -103.18)" fill="#ff2020"/>
    </g>
    <g>
      <path d="M285.42,236.6a18.42,18.42,0,0,1-1.69-1.74c-.48-.64-1-1.28-1.38-1.94a15.72,15.72,0,0,0,1.09,1.25,9.48,9.48,0,0,0,1.21,1.16,18.19,18.19,0,0,1-4-7.14,29.39,29.39,0,0,1-1.25-7.68c-.11-2.27-.05-4.43,0-6.25v-.85a4.34,4.34,0,0,0-.08-.52,3,3,0,0,0-.36-1,4,4,0,0,0-1.39-1.44,27.47,27.47,0,0,0-2.4-1.37c-1.11-.56-2.36-1.14-3.81-1.86-.72-.35-1.48-.74-2.3-1.2a24.86,24.86,0,0,1-3.05-2,15.75,15.75,0,0,1-2.63-2.53,15,15,0,0,1-1.9-3.11l-.7-1.55-.48-1.14c-.33-.82-.67-1.64-1-2.63a19.58,19.58,0,0,1-1.07-7.15,19.1,19.1,0,0,1,2-7.24,20.4,20.4,0,0,1,1.82-3.05,15.54,15.54,0,0,1,3.06-3.19,17,17,0,0,1,3.22-1.9c.93-.42,1.51-.64,1.32-.74a4.16,4.16,0,0,0-2.05.32,11.17,11.17,0,0,0-3.48,1.92,16.68,16.68,0,0,0-3.11,3.27,21.61,21.61,0,0,0-1.89,3.14,18.52,18.52,0,0,0-1.8,11.74,23.29,23.29,0,0,0,.85,3.37c.32,1,.66,1.86,1,2.68l.47,1.14.72,1.64a17.1,17.1,0,0,0,2,3.33,17.58,17.58,0,0,0,2.79,2.73,27.12,27.12,0,0,0,3.22,2.17c.85.49,1.61.9,2.32,1.28,1.44.76,2.64,1.38,3.65,2,.51.3.94.58,1.33.85l.26.2a.63.63,0,0,1,.2.16c.06.07.14.13.17.18a1.23,1.23,0,0,1,.16,1.29l-.08.13c0,.07-.06,0-.1.23l-.13.47-.18,1.08c-.24,1.5-.49,3.11-.64,4.91a24.71,24.71,0,0,0,0,7l.15.88.25,1a19.42,19.42,0,0,0,.58,1.9c.26.66.53,1.31.83,1.94a18.69,18.69,0,0,0,1.1,1.93l.6.93c.23.3.48.6.72.89.49.57,1,1.13,1.5,1.63s1.1.94,1.66,1.36l.82.61.83.47a14.7,14.7,0,0,0,3.09,1.38,15.61,15.61,0,0,0,2.53.6,7.63,7.63,0,0,0,3-.16.65.65,0,0,0,.18-.94,9,9,0,0,0-2.2-1.42c-.51-.24-1.18-.69-1.86-1.08-.35-.21-.71-.4-1.09-.66l-1.17-.87a18,18,0,0,1-2.42-2.21,15.8,15.8,0,0,1-1.12-1.39,10.86,10.86,0,0,1-1-1.53A15.37,15.37,0,0,0,285.42,236.6Z" transform="translate(-223.79 -103.18)" fill="#ff2020"/>
      <path d="M289.15,231.9a13,13,0,0,1-1-1.1c-.27-.42-.57-.81-.81-1.23a8.16,8.16,0,0,0,.7.74,4.07,4.07,0,0,0,.76.68,12.53,12.53,0,0,1-2.45-4.58,23.41,23.41,0,0,1-1-5.94c-.11-2-.07-3.89,0-5.76a17,17,0,0,0-.05-2.59,7.75,7.75,0,0,0-.64-2.41,9.47,9.47,0,0,0-3.22-3.8,25.45,25.45,0,0,0-3.51-2.1c-1.28-.66-2.6-1.27-4-1.94-.68-.33-1.36-.68-2-1.06a18.16,18.16,0,0,1-2.12-1.36,10,10,0,0,1-1.84-1.72,9.2,9.2,0,0,1-1.25-2.17c-.36-.8-.65-1.47-.95-2.17s-.57-1.41-.82-2.17a13.91,13.91,0,0,1-.77-4.92,13,13,0,0,1,1.33-4.86,11.61,11.61,0,0,1,3.1-4.14c1.17-1,2.51-1.39,2.29-1.62-.07-.1-.51-.13-1.12,0a5.54,5.54,0,0,0-2,1,12.94,12.94,0,0,0-3.35,4.38A13.18,13.18,0,0,0,263,186.4a14.45,14.45,0,0,0,.8,5.29c.25.79.54,1.52.82,2.24l.44,1,.52,1.21a10.79,10.79,0,0,0,1.37,2.4,11.66,11.66,0,0,0,2,1.92,21.44,21.44,0,0,0,2.3,1.54c.71.41,1.39.78,2.06,1.14,1.34.71,2.61,1.36,3.78,2a18.38,18.38,0,0,1,3,2.07,6.18,6.18,0,0,1,2.36,5,9.11,9.11,0,0,1-.18,1.4l-.16.8-.18,1.06c-.23,1.43-.47,2.91-.62,4.48a20.19,20.19,0,0,0-.09,5.83,14.25,14.25,0,0,0,2.14,5.65l.43.65.52.61a14.39,14.39,0,0,0,1.06,1.13c.39.33.78.64,1.17.92l.58.41.6.32a10.41,10.41,0,0,0,4.08,1.23,4.93,4.93,0,0,0,2.26-.33.65.65,0,0,0,.18-.94,5.31,5.31,0,0,0-1.53-1.26c-.37-.2-.77-.55-1.22-.84-.22-.16-.46-.29-.7-.48l-.71-.6a11.37,11.37,0,0,1-2.68-3.24A9.27,9.27,0,0,0,289.15,231.9Z" transform="translate(-223.79 -103.18)" fill="#ff2020"/>
      <path d="M292.88,227.2c-.1-.18-.24-.29-.32-.47s-.17-.33-.25-.51c.09.11.22.15.32.24a1.1,1.1,0,0,0,.31.2,10.19,10.19,0,0,1-.87-2,16.63,16.63,0,0,1-.71-4.21c-.1-1.64-.09-3.34,0-5.27,0-.6,0-1.16,0-1.79a14.66,14.66,0,0,0-.11-2,13.67,13.67,0,0,0-1-3.83,15.29,15.29,0,0,0-4.95-6.2,29.41,29.41,0,0,0-4.62-2.84c-1.44-.74-2.83-1.38-4.09-2-.63-.31-1.23-.62-1.77-.92a13.28,13.28,0,0,1-1.18-.75,4.52,4.52,0,0,1-1.66-2.13l-.71-1.63c-.24-.6-.48-1.2-.65-1.73a7.83,7.83,0,0,1-.48-2.68,7,7,0,0,1,.68-2.49,7.18,7.18,0,0,1,1.32-2c.12-.11.13-.17.12-.26l-.07-.33c0-.23-.24-.45-.69-.1a7.17,7.17,0,0,0-1.71,2.35,7.29,7.29,0,0,0-.84,2.87,8.66,8.66,0,0,0,.5,3.13c.17.57.41,1.18.66,1.8l.72,1.72a5.62,5.62,0,0,0,.76,1.43,6.58,6.58,0,0,0,1.17,1.13,13.69,13.69,0,0,0,1.37.93c.56.33,1.16.67,1.79,1,1.24.67,2.57,1.35,3.9,2.11a26.34,26.34,0,0,1,4,2.74,11.58,11.58,0,0,1,4.53,8.77,24.06,24.06,0,0,1-.53,4.61c-.23,1.37-.45,2.72-.6,4.05a16.45,16.45,0,0,0-.21,4.62c.34,2.73,2,5.16,3.95,5.89a5.79,5.79,0,0,0,2.54.5,2.87,2.87,0,0,0,1.55-.52.64.64,0,0,0,.19-.93,3.28,3.28,0,0,0-.86-1.1c-.24-.15-.37-.42-.59-.6s-.22-.18-.31-.3a2.43,2.43,0,0,0-.24-.32,6,6,0,0,1-.83-1.37A3.71,3.71,0,0,0,292.88,227.2Z" transform="translate(-223.79 -103.18)" fill="#ff2020"/>
      <path d="M295.22,224.25a.47.47,0,0,1-.06.09l-.05,0,0,0,.05-.06a1.4,1.4,0,0,1,.2-.16l.09-.06.15-.1-.09.06,0,0-.06,0-.13.1a.86.86,0,0,0-.14.13l0,0,0,0,0,0-.05,0s.05-.06.07-.07a1.19,1.19,0,0,1,.18-.15l.09-.06a.41.41,0,0,0,.12-.09c.16-.11.32-.22.48-.31l.49-.24c.21-.11.53-.28.8-.39l.43-.17.07,0h0s0,0,0,0a8.49,8.49,0,0,1-.44-2.48c-.06-.64-.08-1.37-.09-2.15s0-1.57,0-2.63c0-.76.06-1.44.07-2.27a22.44,22.44,0,0,0-.16-2.72,19.28,19.28,0,0,0-1.35-5.23,21.09,21.09,0,0,0-6.65-8.6,33.3,33.3,0,0,0-5.71-3.59c-1.61-.83-3.07-1.5-4.23-2.08-.59-.29-1.11-.56-1.51-.78a1.19,1.19,0,0,1-.23-.16.81.81,0,0,1-.25-.35v0h0l-.08-.2-.36-.83c-.2-.5-.39-1-.48-1.28a2.88,2.88,0,0,1-.16-.58s0,0,0,0c-.28,0-.4.05-.61.06l-.43,0H275l.19,0,.35.08.58.15s0-.12.08-.3l.1-.26,0-.07v0h0l-.06,0a15.68,15.68,0,0,1-3.13-3,5.92,5.92,0,0,1-.8-1.4,1.71,1.71,0,0,1-.07-.26,2.26,2.26,0,0,0,.12.38,6.35,6.35,0,0,0,1,1.57,13.59,13.59,0,0,0,1.41,1.5l.43.38.31.26s0,0,0,0a2.59,2.59,0,0,0-.3.51c-.24.47-.18.53-.26.49s0,0,0,.16a6.35,6.35,0,0,0,.2.79c.1.36.29.86.49,1.37l.35.85.09.19v0l0,.11a1.6,1.6,0,0,0,.51.79,4.79,4.79,0,0,0,.42.33c.42.25.95.55,1.52.86,1.15.62,2.55,1.33,4,2.17.75.42,1.54.9,2.33,1.42l.61.41.66.47c.49.35,1,.71,1.45,1.12a17.5,17.5,0,0,1,6.66,12.52,15.1,15.1,0,0,1,0,1.78c0,.57-.06,1.24-.13,1.69l-.2,1.47-.17,1c-.23,1.31-.44,2.52-.59,3.62a13.46,13.46,0,0,0-.33,3.42,3.13,3.13,0,0,0,.61,1.74l.08.12.11.06a1.13,1.13,0,0,1,.18.12.66.66,0,0,1,.21,0l.09,0h.13a2.6,2.6,0,0,0,1-.24,1.75,1.75,0,0,0,.84-.69.64.64,0,0,0,.18-.93,4.13,4.13,0,0,0-.19-.93l0-.1,0-.1,0-.1,0,0v0l0,.09a4.25,4.25,0,0,1-.21.43l-.12.22-.06.12,0,.05a2.67,2.67,0,0,1-.26.5,5.08,5.08,0,0,1-.38.52s-.06.05,0,0l.07-.08.15-.12a.6.6,0,0,1,.15-.09,4.44,4.44,0,0,1,.38-.27C295.09,224.32,295.06,224.47,295.22,224.25Z" transform="translate(-223.79 -103.18)" fill="#ff2020"/>
    </g>
    <g>
      <path d="M276.42,257.89a31,31,0,0,1-5.44-3.5l.91.67,1,.6a21.43,21.43,0,0,0,2,1.14,34.8,34.8,0,0,1-9.05-7.66,45.25,45.25,0,0,1-7.26-11.75A47.31,47.31,0,0,1,255,224.45a29.89,29.89,0,0,1,1.38-13.92,18.79,18.79,0,0,1,1.77-3.49,17.34,17.34,0,0,1,1.25-1.64l1.32-1.38a16.72,16.72,0,0,0,3.06-4.16c2.58-4.86,3.53-11.21,4.09-17.25a20.63,20.63,0,0,0-8.06-17.76c-1.14-.86-2.44-1.72-3.8-2.65a41.49,41.49,0,0,1-4.21-3.22,16,16,0,0,1-3.87-5,11.51,11.51,0,0,1-.85-7.09,12.28,12.28,0,0,1,3.32-6.05,13.41,13.41,0,0,1,2.65-2.09,13.6,13.6,0,0,1,3.08-1.33,16.15,16.15,0,0,1,6.25-.55c3.16.34,5.31,1.26,5.12,1a13.65,13.65,0,0,0-5.71-1.53,15.19,15.19,0,0,0-9.66,2.36,13.68,13.68,0,0,0-3.75,3.72,12.36,12.36,0,0,0-2,5.21,12,12,0,0,0,.66,5.67,13.64,13.64,0,0,0,2.73,4.44,33.67,33.67,0,0,0,6.4,5.27c1,.69,2,1.34,2.84,2l.63.47.56.47a14,14,0,0,1,1.07,1,19.16,19.16,0,0,1,3.5,4.67,19.79,19.79,0,0,1,2.37,11.23,57.14,57.14,0,0,1-2.53,12.81,21.93,21.93,0,0,1-2.55,5.18,14.54,14.54,0,0,1-1.7,2l-.45.44-.79.79c-.3.3-.59.6-.87.91l-.74,1a21.62,21.62,0,0,0-3.55,8.25,34.12,34.12,0,0,0-.7,8.09,43.34,43.34,0,0,0,.91,7.7,48.11,48.11,0,0,0,2.09,7.31c.29.85.63,1.66,1,2.47s.7,1.62,1.11,2.46a40.67,40.67,0,0,0,3.24,5.56,37.56,37.56,0,0,0,7.23,7.75,29.94,29.94,0,0,0,8.51,4.83,25.87,25.87,0,0,0,7.47,1.59c.51,0,1,.06,1.42.07l1.2-.07a15.82,15.82,0,0,0,1.65-.18c.63-.17.6-.34,0-.48-.34-.08-.85-.17-1.5-.26s-1.44-.17-2.36-.38l-1.48-.28c-.52-.11-1.06-.29-1.63-.44a31.59,31.59,0,0,1-3.68-1.26,32.74,32.74,0,0,1-8.05-4.9A31.94,31.94,0,0,0,276.42,257.89Z" transform="translate(-223.79 -103.18)" fill="#ff2020"/>
      <path d="M277.7,255.17a28.27,28.27,0,0,1-4.9-3.16l.83.6.87.54a17.5,17.5,0,0,0,1.78,1,31.69,31.69,0,0,1-8.23-7,42,42,0,0,1-6.77-10.95,43.83,43.83,0,0,1-3.25-12.1,26.81,26.81,0,0,1,1.18-12.5,15.08,15.08,0,0,1,1.47-2.92,14.54,14.54,0,0,1,1-1.33c.37-.4.79-.85,1.13-1.19a19.53,19.53,0,0,0,3.64-4.91c4.92-11.24,7.4-26.12-1.4-35.67a24.21,24.21,0,0,0-3.4-3.16c-1.25-.94-2.58-1.82-3.91-2.73a39.09,39.09,0,0,1-3.9-3,13,13,0,0,1-3.16-4,8.44,8.44,0,0,1-.63-5.2,9.22,9.22,0,0,1,2.51-4.56,10.26,10.26,0,0,1,4.44-2.65,13.31,13.31,0,0,1,5.09-.45c2.64.28,4.51,1.06,4.35.82a11.11,11.11,0,0,0-4.84-1.33,12.31,12.31,0,0,0-7.77,1.86,10,10,0,0,0-4.46,6.84,8.88,8.88,0,0,0,.5,4.22,10.56,10.56,0,0,0,2.15,3.5,31.53,31.53,0,0,0,5.85,4.78,38.72,38.72,0,0,1,5.5,4.22,21.93,21.93,0,0,1,4,5.38,22.71,22.71,0,0,1,2.73,12.93,60.68,60.68,0,0,1-2.68,13.52,24.59,24.59,0,0,1-2.9,5.88,18.57,18.57,0,0,1-2,2.44l-.56.54-.69.68-.71.74-.61.8a18.49,18.49,0,0,0-3,7.09,30.72,30.72,0,0,0-.64,7.37,39.78,39.78,0,0,0,.84,7.17,44.59,44.59,0,0,0,1.95,6.87c.27.8.59,1.56.91,2.32s.66,1.53,1,2.32a37.16,37.16,0,0,0,3,5.2,34.37,34.37,0,0,0,6.68,7.17,27,27,0,0,0,7.73,4.38,23,23,0,0,0,6.73,1.39l1.28.06,1.08-.07a15,15,0,0,0,1.49-.19c.63-.17.61-.33,0-.48-.31-.08-.77-.17-1.35-.26s-1.3-.16-2.12-.36l-1.32-.26c-.46-.1-.94-.26-1.45-.4a31,31,0,0,1-3.29-1.14,29.88,29.88,0,0,1-7.23-4.43A28.49,28.49,0,0,0,277.7,255.17Z" transform="translate(-223.79 -103.18)" fill="#ff2020"/>
      <path d="M279,252.46a24.13,24.13,0,0,1-4.36-2.83l.74.54.78.48a15.56,15.56,0,0,0,1.59.91,28.87,28.87,0,0,1-7.42-6.33A40.67,40.67,0,0,1,261,223.84a24.39,24.39,0,0,1,1-11.1,13.24,13.24,0,0,1,1.18-2.35,10.9,10.9,0,0,1,.77-1l.42-.45.22-.24.3-.3a22.53,22.53,0,0,0,4.22-5.66,36.71,36.71,0,0,0,3.38-9.77c.36-1.65.63-3.3.86-4.94l.32-2.46c.08-.83.19-1.6.24-2.51a26.91,26.91,0,0,0-6.59-19.41,26.47,26.47,0,0,0-3.85-3.56c-1.36-1-2.72-1.92-4-2.82-2.57-1.75-5-3.61-6-5.76a5.49,5.49,0,0,1-.42-3.32,6.24,6.24,0,0,1,1.71-3.06,8.46,8.46,0,0,1,7.08-2.23c2.13.21,3.71.85,3.58.63a8.51,8.51,0,0,0-4-1.14,9.29,9.29,0,0,0-5.88,1.37,7,7,0,0,0-3.16,4.73,6.71,6.71,0,0,0,1.93,5.34,28.68,28.68,0,0,0,5.29,4.29c1,.67,2,1.36,3,2.09a27,27,0,0,1,2.92,2.46,25.32,25.32,0,0,1,4.57,6.08,25.77,25.77,0,0,1,3.09,14.64,63.78,63.78,0,0,1-2.83,14.22,28.32,28.32,0,0,1-3.25,6.6,20.91,20.91,0,0,1-2.38,2.85c-.45.44-.92.88-1.25,1.23l-.55.56-.48.63a15.48,15.48,0,0,0-2.54,5.94,27.74,27.74,0,0,0-.58,6.63,36.15,36.15,0,0,0,.77,6.65,41.72,41.72,0,0,0,1.81,6.43c.26.76.55,1.46.85,2.18s.61,1.42,1,2.16a35.19,35.19,0,0,0,2.81,4.86,31.36,31.36,0,0,0,6.13,6.58,23.79,23.79,0,0,0,7,3.92,18.06,18.06,0,0,0,9.41,1c.63-.17.61-.33,0-.48a12,12,0,0,0-1.2-.26,16.51,16.51,0,0,1-1.87-.34l-1.16-.24c-.41-.09-.84-.24-1.29-.36a28.93,28.93,0,0,1-2.88-1,26.88,26.88,0,0,1-6.43-4A25.43,25.43,0,0,0,279,252.46Z" transform="translate(-223.79 -103.18)" fill="#ff2020"/>
      <path d="M280.27,249.75a21.51,21.51,0,0,1-3.82-2.51l.65.48.7.42a12.06,12.06,0,0,0,1.39.79,25.86,25.86,0,0,1-6.59-5.65,37.72,37.72,0,0,1-8.6-19.74,21.41,21.41,0,0,1,.78-9.69,9.52,9.52,0,0,1,.88-1.78,6.87,6.87,0,0,1,.52-.71l.29-.3.13-.16.34-.34a25.29,25.29,0,0,0,4.8-6.42,39.83,39.83,0,0,0,3.68-10.56c.38-1.74.66-3.46.89-5.16l.33-2.53c.09-.86.19-1.58.25-2.64a29.53,29.53,0,0,0-11.62-25.58c-1.47-1.1-2.86-2-4.12-2.89a32.26,32.26,0,0,1-3.29-2.49,7.37,7.37,0,0,1-1.73-2.07,2.59,2.59,0,0,1-.21-1.42,3.38,3.38,0,0,1,.9-1.57,4,4,0,0,1,.85-.68l.46-.25c.17-.07.36-.14.56-.2a7,7,0,0,1,2.77-.24c1.61.16,2.92.64,2.81.44a6.09,6.09,0,0,0-3.09-.93,6.41,6.41,0,0,0-4,.86,4.13,4.13,0,0,0-1.84,2.64,3.14,3.14,0,0,0,.17,1.35,4.76,4.76,0,0,0,1,1.6,26.59,26.59,0,0,0,4.73,3.8c1,.67,2,1.37,3.08,2.15l.81.6.83.68c.57.45,1.08.95,1.6,1.45a28.28,28.28,0,0,1,5.11,6.79,28.61,28.61,0,0,1,3.44,16.34c0,.37-.06.68-.09,1l-.11.91-.24,1.83c-.17,1.23-.36,2.47-.59,3.71a50.35,50.35,0,0,1-1.94,7.49,30.64,30.64,0,0,1-3.6,7.31,24.23,24.23,0,0,1-2.73,3.28l-.77.75-.19.18-.09.1-.19.19-.4.39-.34.46a12.32,12.32,0,0,0-2,4.79,24.79,24.79,0,0,0-.53,5.9A33.7,33.7,0,0,0,263,228a38.72,38.72,0,0,0,1.67,6,35.9,35.9,0,0,0,4.27,8.55c3.22,4.69,7.75,8.15,11.76,9.47a15.46,15.46,0,0,0,8.25.76c.63-.17.61-.33,0-.48a10,10,0,0,0-1.05-.26,14.39,14.39,0,0,1-1.63-.32l-1-.21c-.36-.09-.72-.23-1.11-.33a25.68,25.68,0,0,1-2.49-.9,24.26,24.26,0,0,1-5.62-3.51A22.84,22.84,0,0,0,280.27,249.75Z" transform="translate(-223.79 -103.18)" fill="#ff2020"/>
    </g>
  </g>
</svg>
